<?xml version="1.0" encoding="UTF-8" standalone="no"?>
<!DOCTYPE svg PUBLIC "-//W3C//DTD SVG 1.1//EN"
 "http://www.w3.org/Graphics/SVG/1.1/DTD/svg11.dtd">
<!-- Generated by graphviz version 14.1.2 (20260124.0452)
 -->
<!-- Title: G Pages: 1 -->
<svg width="1281pt" height="633pt"
 viewBox="0.00 0.00 1281.00 633.00" xmlns="http://www.w3.org/2000/svg" xmlns:xlink="http://www.w3.org/1999/xlink">
<g id="graph0" class="graph" transform="scale(1 1) rotate(0) translate(21.6 611.6)">
<title>G</title>
<polygon fill="#111111" stroke="none" points="-21.6,21.6 -21.6,-611.6 1259.85,-611.6 1259.85,21.6 -21.6,21.6"/>
<!-- ../lib/BaseModel.js -->
<g id="node1" class="node">
<title>../lib/BaseModel.js</title>
<path fill="none" stroke="#cfffac" d="M1231.58,-400C1231.58,-400 1147.92,-400 1147.92,-400 1144.58,-400 1141.25,-396.67 1141.25,-393.33 1141.25,-393.33 1141.25,-386.67 1141.25,-386.67 1141.25,-383.33 1144.58,-380 1147.92,-380 1147.92,-380 1231.58,-380 1231.58,-380 1234.92,-380 1238.25,-383.33 1238.25,-386.67 1238.25,-386.67 1238.25,-393.33 1238.25,-393.33 1238.25,-396.67 1234.92,-400 1231.58,-400"/>
<text xml:space="preserve" text-anchor="middle" x="1189.75" y="-386.5" font-family="Arial" font-size="10.00" fill="#cfffac">../lib/BaseModel.js</text>
</g>
<!-- ../lib/FhirUtilities.js -->
<g id="node2" class="node">
<title>../lib/FhirUtilities.js</title>
<path fill="none" stroke="#cfffac" d="M1016.08,-514C1016.08,-514 931.67,-514 931.67,-514 928.33,-514 925,-510.67 925,-507.33 925,-507.33 925,-500.67 925,-500.67 925,-497.33 928.33,-494 931.67,-494 931.67,-494 1016.08,-494 1016.08,-494 1019.42,-494 1022.75,-497.33 1022.75,-500.67 1022.75,-500.67 1022.75,-507.33 1022.75,-507.33 1022.75,-510.67 1019.42,-514 1016.08,-514"/>
<text xml:space="preserve" text-anchor="middle" x="973.88" y="-500.5" font-family="Arial" font-size="10.00" fill="#cfffac">../lib/FhirUtilities.js</text>
</g>
<!-- ../lib/schemas/SimpleSchemas/CarePlans.js -->
<g id="node3" class="node">
<title>../lib/schemas/SimpleSchemas/CarePlans.js</title>
<path fill="none" stroke="#c6c5fe" d="M1072.71,-476C1072.71,-476 875.04,-476 875.04,-476 871.71,-476 868.38,-472.67 868.38,-469.33 868.38,-469.33 868.38,-462.67 868.38,-462.67 868.38,-459.33 871.71,-456 875.04,-456 875.04,-456 1072.71,-456 1072.71,-456 1076.04,-456 1079.38,-459.33 1079.38,-462.67 1079.38,-462.67 1079.38,-469.33 1079.38,-469.33 1079.38,-472.67 1076.04,-476 1072.71,-476"/>
<text xml:space="preserve" text-anchor="middle" x="973.88" y="-462.5" font-family="Arial" font-size="10.00" fill="#c6c5fe">../lib/schemas/SimpleSchemas/CarePlans.js</text>
</g>
<!-- ../lib/schemas/SimpleSchemas/CarePlans.js&#45;&gt;../lib/BaseModel.js -->
<g id="edge1" class="edge">
<title>../lib/schemas/SimpleSchemas/CarePlans.js&#45;&gt;../lib/BaseModel.js</title>
<path fill="none" stroke="#757575" d="M1077.8,-455.52C1087.23,-453.21 1096.51,-450.41 1105.25,-447 1129.04,-437.72 1152.75,-420.59 1168.79,-407.52"/>
<polygon fill="#757575" stroke="#757575" points="1170.73,-410.46 1176.14,-401.36 1166.23,-405.1 1170.73,-410.46"/>
</g>
<!-- ../lib/schemas/SimpleSchemas/CareTeams.js -->
<g id="node4" class="node">
<title>../lib/schemas/SimpleSchemas/CareTeams.js</title>
<path fill="none" stroke="#c6c5fe" d="M1074.96,-438C1074.96,-438 872.79,-438 872.79,-438 869.46,-438 866.12,-434.67 866.12,-431.33 866.12,-431.33 866.12,-424.67 866.12,-424.67 866.12,-421.33 869.46,-418 872.79,-418 872.79,-418 1074.96,-418 1074.96,-418 1078.29,-418 1081.62,-421.33 1081.62,-424.67 1081.62,-424.67 1081.62,-431.33 1081.62,-431.33 1081.62,-434.67 1078.29,-438 1074.96,-438"/>
<text xml:space="preserve" text-anchor="middle" x="973.88" y="-424.5" font-family="Arial" font-size="10.00" fill="#c6c5fe">../lib/schemas/SimpleSchemas/CareTeams.js</text>
</g>
<!-- ../lib/schemas/SimpleSchemas/CareTeams.js&#45;&gt;../lib/BaseModel.js -->
<g id="edge2" class="edge">
<title>../lib/schemas/SimpleSchemas/CareTeams.js&#45;&gt;../lib/BaseModel.js</title>
<path fill="none" stroke="#757575" d="M1053.64,-417.55C1070.7,-415 1088.61,-412.1 1105.25,-409 1114.91,-407.2 1125.15,-405.06 1135.03,-402.88"/>
<polygon fill="#757575" stroke="#757575" points="1135.51,-406.36 1144.5,-400.75 1133.98,-399.53 1135.51,-406.36"/>
</g>
<!-- ../lib/schemas/SimpleSchemas/Conditions.js -->
<g id="node5" class="node">
<title>../lib/schemas/SimpleSchemas/Conditions.js</title>
<path fill="none" stroke="#c6c5fe" d="M1073.08,-400C1073.08,-400 874.67,-400 874.67,-400 871.33,-400 868,-396.67 868,-393.33 868,-393.33 868,-386.67 868,-386.67 868,-383.33 871.33,-380 874.67,-380 874.67,-380 1073.08,-380 1073.08,-380 1076.42,-380 1079.75,-383.33 1079.75,-386.67 1079.75,-386.67 1079.75,-393.33 1079.75,-393.33 1079.75,-396.67 1076.42,-400 1073.08,-400"/>
<text xml:space="preserve" text-anchor="middle" x="973.88" y="-386.5" font-family="Arial" font-size="10.00" fill="#c6c5fe">../lib/schemas/SimpleSchemas/Conditions.js</text>
</g>
<!-- ../lib/schemas/SimpleSchemas/Conditions.js&#45;&gt;../lib/BaseModel.js -->
<g id="edge3" class="edge">
<title>../lib/schemas/SimpleSchemas/Conditions.js&#45;&gt;../lib/BaseModel.js</title>
<path fill="none" stroke="#757575" d="M1080.25,-390C1097.22,-390 1114.24,-390 1129.61,-390"/>
<polygon fill="#757575" stroke="#757575" points="1129.5,-393.5 1139.5,-390 1129.5,-386.5 1129.5,-393.5"/>
</g>
<!-- ../lib/schemas/SimpleSchemas/Devices.js -->
<g id="node6" class="node">
<title>../lib/schemas/SimpleSchemas/Devices.js</title>
<path fill="none" stroke="#c6c5fe" d="M1067.83,-362C1067.83,-362 879.92,-362 879.92,-362 876.58,-362 873.25,-358.67 873.25,-355.33 873.25,-355.33 873.25,-348.67 873.25,-348.67 873.25,-345.33 876.58,-342 879.92,-342 879.92,-342 1067.83,-342 1067.83,-342 1071.17,-342 1074.5,-345.33 1074.5,-348.67 1074.5,-348.67 1074.5,-355.33 1074.5,-355.33 1074.5,-358.67 1071.17,-362 1067.83,-362"/>
<text xml:space="preserve" text-anchor="middle" x="973.88" y="-348.5" font-family="Arial" font-size="10.00" fill="#c6c5fe">../lib/schemas/SimpleSchemas/Devices.js</text>
</g>
<!-- ../lib/schemas/SimpleSchemas/Devices.js&#45;&gt;../lib/BaseModel.js -->
<g id="edge4" class="edge">
<title>../lib/schemas/SimpleSchemas/Devices.js&#45;&gt;../lib/BaseModel.js</title>
<path fill="none" stroke="#757575" d="M1053.64,-362.45C1070.7,-365 1088.61,-367.9 1105.25,-371 1114.91,-372.8 1125.15,-374.94 1135.03,-377.12"/>
<polygon fill="#757575" stroke="#757575" points="1133.98,-380.47 1144.5,-379.25 1135.51,-373.64 1133.98,-380.47"/>
</g>
<!-- ../lib/schemas/SimpleSchemas/MedicationStatements.js -->
<g id="node7" class="node">
<title>../lib/schemas/SimpleSchemas/MedicationStatements.js</title>
<path fill="none" stroke="#c6c5fe" d="M1098.58,-324C1098.58,-324 849.17,-324 849.17,-324 845.83,-324 842.5,-320.67 842.5,-317.33 842.5,-317.33 842.5,-310.67 842.5,-310.67 842.5,-307.33 845.83,-304 849.17,-304 849.17,-304 1098.58,-304 1098.58,-304 1101.92,-304 1105.25,-307.33 1105.25,-310.67 1105.25,-310.67 1105.25,-317.33 1105.25,-317.33 1105.25,-320.67 1101.92,-324 1098.58,-324"/>
<text xml:space="preserve" text-anchor="middle" x="973.88" y="-310.5" font-family="Arial" font-size="10.00" fill="#c6c5fe">../lib/schemas/SimpleSchemas/MedicationStatements.js</text>
</g>
<!-- ../lib/schemas/SimpleSchemas/MedicationStatements.js&#45;&gt;../lib/BaseModel.js -->
<g id="edge5" class="edge">
<title>../lib/schemas/SimpleSchemas/MedicationStatements.js&#45;&gt;../lib/BaseModel.js</title>
<path fill="none" stroke="#757575" d="M1077.8,-324.48C1087.23,-326.79 1096.51,-329.59 1105.25,-333 1129.04,-342.28 1152.75,-359.41 1168.79,-372.48"/>
<polygon fill="#757575" stroke="#757575" points="1166.23,-374.9 1176.14,-378.64 1170.73,-369.54 1166.23,-374.9"/>
</g>
<!-- ../lib/schemas/SimpleSchemas/Observations.js -->
<g id="node8" class="node">
<title>../lib/schemas/SimpleSchemas/Observations.js</title>
<path fill="none" stroke="#c6c5fe" d="M1078.71,-286C1078.71,-286 869.04,-286 869.04,-286 865.71,-286 862.38,-282.67 862.38,-279.33 862.38,-279.33 862.38,-272.67 862.38,-272.67 862.38,-269.33 865.71,-266 869.04,-266 869.04,-266 1078.71,-266 1078.71,-266 1082.04,-266 1085.38,-269.33 1085.38,-272.67 1085.38,-272.67 1085.38,-279.33 1085.38,-279.33 1085.38,-282.67 1082.04,-286 1078.71,-286"/>
<text xml:space="preserve" text-anchor="middle" x="973.88" y="-272.5" font-family="Arial" font-size="10.00" fill="#c6c5fe">../lib/schemas/SimpleSchemas/Observations.js</text>
</g>
<!-- ../lib/schemas/SimpleSchemas/Observations.js&#45;&gt;../lib/BaseModel.js -->
<g id="edge6" class="edge">
<title>../lib/schemas/SimpleSchemas/Observations.js&#45;&gt;../lib/BaseModel.js</title>
<path fill="none" stroke="#757575" d="M1085.53,-286.39C1092.38,-288.78 1099.02,-291.62 1105.25,-295 1137.43,-312.46 1163.11,-347.47 1177.11,-369.77"/>
<polygon fill="#757575" stroke="#757575" points="1174.07,-371.51 1182.24,-378.26 1180.06,-367.89 1174.07,-371.51"/>
</g>
<!-- ../lib/schemas/SimpleSchemas/Patients.js -->
<g id="node9" class="node">
<title>../lib/schemas/SimpleSchemas/Patients.js</title>
<path fill="none" stroke="#c6c5fe" d="M1067.83,-248C1067.83,-248 879.92,-248 879.92,-248 876.58,-248 873.25,-244.67 873.25,-241.33 873.25,-241.33 873.25,-234.67 873.25,-234.67 873.25,-231.33 876.58,-228 879.92,-228 879.92,-228 1067.83,-228 1067.83,-228 1071.17,-228 1074.5,-231.33 1074.5,-234.67 1074.5,-234.67 1074.5,-241.33 1074.5,-241.33 1074.5,-244.67 1071.17,-248 1067.83,-248"/>
<text xml:space="preserve" text-anchor="middle" x="973.88" y="-234.5" font-family="Arial" font-size="10.00" fill="#c6c5fe">../lib/schemas/SimpleSchemas/Patients.js</text>
</g>
<!-- ../lib/schemas/SimpleSchemas/Patients.js&#45;&gt;../lib/BaseModel.js -->
<g id="edge7" class="edge">
<title>../lib/schemas/SimpleSchemas/Patients.js&#45;&gt;../lib/BaseModel.js</title>
<path fill="none" stroke="#757575" d="M1075,-243.38C1085.72,-246.59 1096.05,-251.01 1105.25,-257 1146.39,-283.8 1170.97,-338.72 1181.93,-368.92"/>
<polygon fill="#757575" stroke="#757575" points="1178.52,-369.78 1185.09,-378.09 1185.14,-367.5 1178.52,-369.78"/>
</g>
<!-- ../lib/schemas/SimpleSchemas/Practitioners.js -->
<g id="node10" class="node">
<title>../lib/schemas/SimpleSchemas/Practitioners.js</title>
<path fill="none" stroke="#c6c5fe" d="M1077.21,-590C1077.21,-590 870.54,-590 870.54,-590 867.21,-590 863.88,-586.67 863.88,-583.33 863.88,-583.33 863.88,-576.67 863.88,-576.67 863.88,-573.33 867.21,-570 870.54,-570 870.54,-570 1077.21,-570 1077.21,-570 1080.54,-570 1083.88,-573.33 1083.88,-576.67 1083.88,-576.67 1083.88,-583.33 1083.88,-583.33 1083.88,-586.67 1080.54,-590 1077.21,-590"/>
<text xml:space="preserve" text-anchor="middle" x="973.88" y="-576.5" font-family="Arial" font-size="10.00" fill="#c6c5fe">../lib/schemas/SimpleSchemas/Practitioners.js</text>
</g>
<!-- ../lib/schemas/SimpleSchemas/Practitioners.js&#45;&gt;../lib/BaseModel.js -->
<g id="edge8" class="edge">
<title>../lib/schemas/SimpleSchemas/Practitioners.js&#45;&gt;../lib/BaseModel.js</title>
<path fill="none" stroke="#757575" d="M1084.15,-572.52C1091.65,-569.51 1098.78,-565.72 1105.25,-561 1155.83,-524.07 1177.29,-448.07 1185.02,-411.11"/>
<polygon fill="#757575" stroke="#757575" points="1188.38,-412.15 1186.85,-401.67 1181.51,-410.82 1188.38,-412.15"/>
</g>
<!-- ../lib/schemas/SimpleSchemas/Procedures.js -->
<g id="node11" class="node">
<title>../lib/schemas/SimpleSchemas/Procedures.js</title>
<path fill="none" stroke="#c6c5fe" d="M1074.58,-552C1074.58,-552 873.17,-552 873.17,-552 869.83,-552 866.5,-548.67 866.5,-545.33 866.5,-545.33 866.5,-538.67 866.5,-538.67 866.5,-535.33 869.83,-532 873.17,-532 873.17,-532 1074.58,-532 1074.58,-532 1077.92,-532 1081.25,-535.33 1081.25,-538.67 1081.25,-538.67 1081.25,-545.33 1081.25,-545.33 1081.25,-548.67 1077.92,-552 1074.58,-552"/>
<text xml:space="preserve" text-anchor="middle" x="973.88" y="-538.5" font-family="Arial" font-size="10.00" fill="#c6c5fe">../lib/schemas/SimpleSchemas/Procedures.js</text>
</g>
<!-- ../lib/schemas/SimpleSchemas/Procedures.js&#45;&gt;../lib/BaseModel.js -->
<g id="edge9" class="edge">
<title>../lib/schemas/SimpleSchemas/Procedures.js&#45;&gt;../lib/BaseModel.js</title>
<path fill="none" stroke="#757575" d="M1081.64,-534.45C1089.97,-531.5 1097.97,-527.74 1105.25,-523 1146.39,-496.2 1170.97,-441.28 1181.93,-411.08"/>
<polygon fill="#757575" stroke="#757575" points="1185.14,-412.5 1185.09,-401.91 1178.52,-410.22 1185.14,-412.5"/>
</g>
<!-- client/components/FirstRunSetup.jsx -->
<g id="node12" class="node">
<title>client/components/FirstRunSetup.jsx</title>
<path fill="none" stroke="#cfffac" d="M386.46,-210C386.46,-210 222.54,-210 222.54,-210 219.21,-210 215.88,-206.67 215.88,-203.33 215.88,-203.33 215.88,-196.67 215.88,-196.67 215.88,-193.33 219.21,-190 222.54,-190 222.54,-190 386.46,-190 386.46,-190 389.79,-190 393.12,-193.33 393.12,-196.67 393.12,-196.67 393.12,-203.33 393.12,-203.33 393.12,-206.67 389.79,-210 386.46,-210"/>
<text xml:space="preserve" text-anchor="middle" x="304.5" y="-196.5" font-family="Arial" font-size="10.00" fill="#cfffac">client/components/FirstRunSetup.jsx</text>
</g>
<!-- client/components/ForgotPasswordForm.jsx -->
<g id="node13" class="node">
<title>client/components/ForgotPasswordForm.jsx</title>
<path fill="none" stroke="#cfffac" d="M401.83,-172C401.83,-172 207.17,-172 207.17,-172 203.83,-172 200.5,-168.67 200.5,-165.33 200.5,-165.33 200.5,-158.67 200.5,-158.67 200.5,-155.33 203.83,-152 207.17,-152 207.17,-152 401.83,-152 401.83,-152 405.17,-152 408.5,-155.33 408.5,-158.67 408.5,-158.67 408.5,-165.33 408.5,-165.33 408.5,-168.67 405.17,-172 401.83,-172"/>
<text xml:space="preserve" text-anchor="middle" x="304.5" y="-158.5" font-family="Arial" font-size="10.00" fill="#cfffac">client/components/ForgotPasswordForm.jsx</text>
</g>
<!-- client/components/LoginForm.jsx -->
<g id="node14" class="node">
<title>client/components/LoginForm.jsx</title>
<path fill="none" stroke="#c6c5fe" d="M601.21,-134C601.21,-134 454.54,-134 454.54,-134 451.21,-134 447.88,-130.67 447.88,-127.33 447.88,-127.33 447.88,-120.67 447.88,-120.67 447.88,-117.33 451.21,-114 454.54,-114 454.54,-114 601.21,-114 601.21,-114 604.54,-114 607.88,-117.33 607.88,-120.67 607.88,-120.67 607.88,-127.33 607.88,-127.33 607.88,-130.67 604.54,-134 601.21,-134"/>
<text xml:space="preserve" text-anchor="middle" x="527.88" y="-120.5" font-family="Arial" font-size="10.00" fill="#c6c5fe">client/components/LoginForm.jsx</text>
</g>
<!-- client/hooks/useDevAutoLogin.js -->
<g id="node15" class="node">
<title>client/hooks/useDevAutoLogin.js</title>
<path fill="none" stroke="#c6c5fe" d="M799.83,-172C799.83,-172 653.92,-172 653.92,-172 650.58,-172 647.25,-168.67 647.25,-165.33 647.25,-165.33 647.25,-158.67 647.25,-158.67 647.25,-155.33 650.58,-152 653.92,-152 653.92,-152 799.83,-152 799.83,-152 803.17,-152 806.5,-155.33 806.5,-158.67 806.5,-158.67 806.5,-165.33 806.5,-165.33 806.5,-168.67 803.17,-172 799.83,-172"/>
<text xml:space="preserve" text-anchor="middle" x="726.88" y="-158.5" font-family="Arial" font-size="10.00" fill="#c6c5fe">client/hooks/useDevAutoLogin.js</text>
</g>
<!-- client/components/LoginForm.jsx&#45;&gt;client/hooks/useDevAutoLogin.js -->
<g id="edge10" class="edge">
<title>client/components/LoginForm.jsx&#45;&gt;client/hooks/useDevAutoLogin.js</title>
<path fill="none" stroke="#757575" d="M583.23,-134.48C607.13,-139.09 635.4,-144.55 660.45,-149.38"/>
<polygon fill="#757575" stroke="#757575" points="659.73,-152.81 670.21,-151.26 661.06,-145.93 659.73,-152.81"/>
</g>
<!-- lib/AccountsLogger.js -->
<g id="node16" class="node">
<title>lib/AccountsLogger.js</title>
<path fill="none" stroke="#cfffac" d="M1022.08,-115C1022.08,-115 925.67,-115 925.67,-115 922.33,-115 919,-111.67 919,-108.33 919,-108.33 919,-101.67 919,-101.67 919,-98.33 922.33,-95 925.67,-95 925.67,-95 1022.08,-95 1022.08,-95 1025.42,-95 1028.75,-98.33 1028.75,-101.67 1028.75,-101.67 1028.75,-108.33 1028.75,-108.33 1028.75,-111.67 1025.42,-115 1022.08,-115"/>
<text xml:space="preserve" text-anchor="middle" x="973.88" y="-101.5" font-family="Arial" font-size="10.00" fill="#cfffac">lib/AccountsLogger.js</text>
</g>
<!-- client/components/LoginForm.jsx&#45;&gt;lib/AccountsLogger.js -->
<g id="edge11" class="edge">
<title>client/components/LoginForm.jsx&#45;&gt;lib/AccountsLogger.js</title>
<path fill="none" stroke="#757575" d="M608.25,-120.6C693.6,-116.95 827.72,-111.21 907.31,-107.81"/>
<polygon fill="#757575" stroke="#757575" points="907.29,-111.31 917.13,-107.39 906.99,-104.32 907.29,-111.31"/>
</g>
<!-- client/hooks/useDevAutoLogin.js&#45;&gt;lib/AccountsLogger.js -->
<g id="edge13" class="edge">
<title>client/hooks/useDevAutoLogin.js&#45;&gt;lib/AccountsLogger.js</title>
<path fill="none" stroke="#757575" d="M772.81,-151.55C813.35,-142.11 873.14,-128.2 916.8,-118.05"/>
<polygon fill="#757575" stroke="#757575" points="917.39,-121.5 926.33,-115.83 915.8,-114.68 917.39,-121.5"/>
</g>
<!-- client/components/SignupForm.jsx -->
<g id="node17" class="node">
<title>client/components/SignupForm.jsx</title>
<path fill="none" stroke="#c6c5fe" d="M604.58,-96C604.58,-96 451.17,-96 451.17,-96 447.83,-96 444.5,-92.67 444.5,-89.33 444.5,-89.33 444.5,-82.67 444.5,-82.67 444.5,-79.33 447.83,-76 451.17,-76 451.17,-76 604.58,-76 604.58,-76 607.92,-76 611.25,-79.33 611.25,-82.67 611.25,-82.67 611.25,-89.33 611.25,-89.33 611.25,-92.67 607.92,-96 604.58,-96"/>
<text xml:space="preserve" text-anchor="middle" x="527.88" y="-82.5" font-family="Arial" font-size="10.00" fill="#c6c5fe">client/components/SignupForm.jsx</text>
</g>
<!-- client/components/SignupForm.jsx&#45;&gt;lib/AccountsLogger.js -->
<g id="edge12" class="edge">
<title>client/components/SignupForm.jsx&#45;&gt;lib/AccountsLogger.js</title>
<path fill="none" stroke="#757575" d="M611.61,-89.54C697.1,-93.2 828.8,-98.83 907.35,-102.2"/>
<polygon fill="#757575" stroke="#757575" points="906.89,-105.68 917.03,-102.61 907.19,-98.69 906.89,-105.68"/>
</g>
<!-- client/debug&#45;accounts.js -->
<g id="node18" class="node">
<title>client/debug&#45;accounts.js</title>
<path fill="none" stroke="#cfffac" d="M136.46,-191C136.46,-191 28.04,-191 28.04,-191 24.71,-191 21.37,-187.67 21.37,-184.33 21.37,-184.33 21.37,-177.67 21.37,-177.67 21.37,-174.33 24.71,-171 28.04,-171 28.04,-171 136.46,-171 136.46,-171 139.79,-171 143.12,-174.33 143.12,-177.67 143.12,-177.67 143.12,-184.33 143.12,-184.33 143.12,-187.67 139.79,-191 136.46,-191"/>
<text xml:space="preserve" text-anchor="middle" x="82.25" y="-177.5" font-family="Arial" font-size="10.00" fill="#cfffac">client/debug&#45;accounts.js</text>
</g>
<!-- client/hooks/useAccountsClient.js -->
<g id="node19" class="node">
<title>client/hooks/useAccountsClient.js</title>
<path fill="none" stroke="#cfffac" d="M157.83,-229C157.83,-229 6.67,-229 6.67,-229 3.33,-229 0,-225.67 0,-222.33 0,-222.33 0,-215.67 0,-215.67 0,-212.33 3.33,-209 6.67,-209 6.67,-209 157.83,-209 157.83,-209 161.17,-209 164.5,-212.33 164.5,-215.67 164.5,-215.67 164.5,-222.33 164.5,-222.33 164.5,-225.67 161.17,-229 157.83,-229"/>
<text xml:space="preserve" text-anchor="middle" x="82.25" y="-215.5" font-family="Arial" font-size="10.00" fill="#cfffac">client/hooks/useAccountsClient.js</text>
</g>
<!-- client/hooks/useAuth.js -->
<g id="node20" class="node">
<title>client/hooks/useAuth.js</title>
<path fill="none" stroke="#cfffac" d="M134.58,-267C134.58,-267 29.92,-267 29.92,-267 26.58,-267 23.25,-263.67 23.25,-260.33 23.25,-260.33 23.25,-253.67 23.25,-253.67 23.25,-250.33 26.58,-247 29.92,-247 29.92,-247 134.58,-247 134.58,-247 137.92,-247 141.25,-250.33 141.25,-253.67 141.25,-253.67 141.25,-260.33 141.25,-260.33 141.25,-263.67 137.92,-267 134.58,-267"/>
<text xml:space="preserve" text-anchor="middle" x="82.25" y="-253.5" font-family="Arial" font-size="10.00" fill="#cfffac">client/hooks/useAuth.js</text>
</g>
<!-- client/pages/LoginPage.jsx -->
<g id="node21" class="node">
<title>client/pages/LoginPage.jsx</title>
<path fill="none" stroke="#c6c5fe" d="M364.33,-134C364.33,-134 244.67,-134 244.67,-134 241.33,-134 238,-130.67 238,-127.33 238,-127.33 238,-120.67 238,-120.67 238,-117.33 241.33,-114 244.67,-114 244.67,-114 364.33,-114 364.33,-114 367.67,-114 371,-117.33 371,-120.67 371,-120.67 371,-127.33 371,-127.33 371,-130.67 367.67,-134 364.33,-134"/>
<text xml:space="preserve" text-anchor="middle" x="304.5" y="-120.5" font-family="Arial" font-size="10.00" fill="#c6c5fe">client/pages/LoginPage.jsx</text>
</g>
<!-- client/pages/LoginPage.jsx&#45;&gt;client/components/LoginForm.jsx -->
<g id="edge14" class="edge">
<title>client/pages/LoginPage.jsx&#45;&gt;client/components/LoginForm.jsx</title>
<path fill="none" stroke="#757575" d="M371.32,-124C391.72,-124 414.58,-124 436.35,-124"/>
<polygon fill="#757575" stroke="#757575" points="436.11,-127.5 446.11,-124 436.11,-120.5 436.11,-127.5"/>
</g>
<!-- client/pages/RegisterPage.jsx -->
<g id="node22" class="node">
<title>client/pages/RegisterPage.jsx</title>
<path fill="none" stroke="#c6c5fe" d="M371.08,-96C371.08,-96 237.92,-96 237.92,-96 234.58,-96 231.25,-92.67 231.25,-89.33 231.25,-89.33 231.25,-82.67 231.25,-82.67 231.25,-79.33 234.58,-76 237.92,-76 237.92,-76 371.08,-76 371.08,-76 374.42,-76 377.75,-79.33 377.75,-82.67 377.75,-82.67 377.75,-89.33 377.75,-89.33 377.75,-92.67 374.42,-96 371.08,-96"/>
<text xml:space="preserve" text-anchor="middle" x="304.5" y="-82.5" font-family="Arial" font-size="10.00" fill="#c6c5fe">client/pages/RegisterPage.jsx</text>
</g>
<!-- client/pages/RegisterPage.jsx&#45;&gt;client/components/SignupForm.jsx -->
<g id="edge15" class="edge">
<title>client/pages/RegisterPage.jsx&#45;&gt;client/components/SignupForm.jsx</title>
<path fill="none" stroke="#757575" d="M377.99,-86C395.53,-86 414.53,-86 432.91,-86"/>
<polygon fill="#757575" stroke="#757575" points="432.73,-89.5 442.73,-86 432.73,-82.5 432.73,-89.5"/>
</g>
<!-- client/routes.js -->
<g id="node23" class="node">
<title>client/routes.js</title>
<path fill="none" stroke="#c6c5fe" d="M115.46,-153C115.46,-153 49.04,-153 49.04,-153 45.71,-153 42.38,-149.67 42.38,-146.33 42.38,-146.33 42.38,-139.67 42.38,-139.67 42.38,-136.33 45.71,-133 49.04,-133 49.04,-133 115.46,-133 115.46,-133 118.79,-133 122.12,-136.33 122.12,-139.67 122.12,-139.67 122.12,-146.33 122.12,-146.33 122.12,-149.67 118.79,-153 115.46,-153"/>
<text xml:space="preserve" text-anchor="middle" x="82.25" y="-139.5" font-family="Arial" font-size="10.00" fill="#c6c5fe">client/routes.js</text>
</g>
<!-- client/routes.js&#45;&gt;client/components/FirstRunSetup.jsx -->
<g id="edge16" class="edge">
<title>client/routes.js&#45;&gt;client/components/FirstRunSetup.jsx</title>
<path fill="none" stroke="#757575" d="M122.29,-150.01C135.87,-153 151.07,-156.98 164.5,-162 181.45,-168.33 183.41,-175.07 200.5,-181 206.72,-183.16 213.24,-185.09 219.85,-186.8"/>
<polygon fill="#757575" stroke="#757575" points="219.01,-190.2 229.55,-189.15 220.65,-183.4 219.01,-190.2"/>
</g>
<!-- client/routes.js&#45;&gt;client/components/ForgotPasswordForm.jsx -->
<g id="edge17" class="edge">
<title>client/routes.js&#45;&gt;client/components/ForgotPasswordForm.jsx</title>
<path fill="none" stroke="#757575" d="M122.37,-146.37C141.26,-148 165.01,-150.05 189.03,-152.13"/>
<polygon fill="#757575" stroke="#757575" points="188.67,-155.61 198.94,-152.98 189.28,-148.63 188.67,-155.61"/>
</g>
<!-- client/routes.js&#45;&gt;client/pages/LoginPage.jsx -->
<g id="edge18" class="edge">
<title>client/routes.js&#45;&gt;client/pages/LoginPage.jsx</title>
<path fill="none" stroke="#757575" d="M122.37,-139.63C151.15,-137.14 191.21,-133.69 226.33,-130.66"/>
<polygon fill="#757575" stroke="#757575" points="226.37,-134.17 236.04,-129.82 225.77,-127.19 226.37,-134.17"/>
</g>
<!-- client/routes.js&#45;&gt;client/pages/RegisterPage.jsx -->
<g id="edge19" class="edge">
<title>client/routes.js&#45;&gt;client/pages/RegisterPage.jsx</title>
<path fill="none" stroke="#757575" d="M111.85,-132.57C135.41,-124.26 169.8,-112.77 200.5,-105 209.5,-102.72 219,-100.6 228.45,-98.66"/>
<polygon fill="#757575" stroke="#757575" points="228.87,-102.14 238,-96.76 227.51,-95.28 228.87,-102.14"/>
</g>
<!-- client/startup.js -->
<g id="node24" class="node">
<title>client/startup.js</title>
<path fill="none" stroke="#c6c5fe" d="M761.58,-58C761.58,-58 692.17,-58 692.17,-58 688.83,-58 685.5,-54.67 685.5,-51.33 685.5,-51.33 685.5,-44.67 685.5,-44.67 685.5,-41.33 688.83,-38 692.17,-38 692.17,-38 761.58,-38 761.58,-38 764.92,-38 768.25,-41.33 768.25,-44.67 768.25,-44.67 768.25,-51.33 768.25,-51.33 768.25,-54.67 764.92,-58 761.58,-58"/>
<text xml:space="preserve" text-anchor="middle" x="726.88" y="-44.5" font-family="Arial" font-size="10.00" fill="#c6c5fe">client/startup.js</text>
</g>
<!-- client/startup.js&#45;&gt;lib/AccountsLogger.js -->
<g id="edge20" class="edge">
<title>client/startup.js&#45;&gt;lib/AccountsLogger.js</title>
<path fill="none" stroke="#757575" d="M768.61,-57.48C809.12,-66.9 871.6,-81.44 916.79,-91.95"/>
<polygon fill="#757575" stroke="#757575" points="915.88,-95.33 926.41,-94.19 917.47,-88.52 915.88,-95.33"/>
</g>
<!-- client/test&#45;accounts.js -->
<g id="node25" class="node">
<title>client/test&#45;accounts.js</title>
<path fill="none" stroke="#c6c5fe" d="M776.21,-20C776.21,-20 677.54,-20 677.54,-20 674.21,-20 670.88,-16.67 670.88,-13.33 670.88,-13.33 670.88,-6.67 670.88,-6.67 670.88,-3.33 674.21,0 677.54,0 677.54,0 776.21,0 776.21,0 779.54,0 782.88,-3.33 782.88,-6.67 782.88,-6.67 782.88,-13.33 782.88,-13.33 782.88,-16.67 779.54,-20 776.21,-20"/>
<text xml:space="preserve" text-anchor="middle" x="726.88" y="-6.5" font-family="Arial" font-size="10.00" fill="#c6c5fe">client/test&#45;accounts.js</text>
</g>
<!-- client/test&#45;accounts.js&#45;&gt;lib/AccountsLogger.js -->
<g id="edge21" class="edge">
<title>client/test&#45;accounts.js&#45;&gt;lib/AccountsLogger.js</title>
<path fill="none" stroke="#757575" d="M777.37,-20.43C787.12,-22.91 797.21,-25.79 806.5,-29 856.06,-46.13 910.91,-72.78 943.6,-89.55"/>
<polygon fill="#757575" stroke="#757575" points="941.57,-92.43 952.06,-93.92 944.78,-86.22 941.57,-92.43"/>
</g>
<!-- server/accounts&#45;server.js -->
<g id="node26" class="node">
<title>server/accounts&#45;server.js</title>
<path fill="none" stroke="#c6c5fe" d="M783.33,-210C783.33,-210 670.42,-210 670.42,-210 667.08,-210 663.75,-206.67 663.75,-203.33 663.75,-203.33 663.75,-196.67 663.75,-196.67 663.75,-193.33 667.08,-190 670.42,-190 670.42,-190 783.33,-190 783.33,-190 786.67,-190 790,-193.33 790,-196.67 790,-196.67 790,-203.33 790,-203.33 790,-206.67 786.67,-210 783.33,-210"/>
<text xml:space="preserve" text-anchor="middle" x="726.88" y="-196.5" font-family="Arial" font-size="10.00" fill="#c6c5fe">server/accounts&#45;server.js</text>
</g>
<!-- server/accounts&#45;server.js&#45;&gt;lib/AccountsLogger.js -->
<g id="edge22" class="edge">
<title>server/accounts&#45;server.js&#45;&gt;lib/AccountsLogger.js</title>
<path fill="none" stroke="#757575" d="M777.37,-189.57C787.12,-187.09 797.21,-184.21 806.5,-181 856.06,-163.87 910.91,-137.22 943.6,-120.45"/>
<polygon fill="#757575" stroke="#757575" points="944.78,-123.78 952.06,-116.08 941.57,-117.57 944.78,-123.78"/>
</g>
<!-- server/dev&#45;autologin.js -->
<g id="node27" class="node">
<title>server/dev&#45;autologin.js</title>
<path fill="none" stroke="#c6c5fe" d="M777.33,-248C777.33,-248 676.42,-248 676.42,-248 673.08,-248 669.75,-244.67 669.75,-241.33 669.75,-241.33 669.75,-234.67 669.75,-234.67 669.75,-231.33 673.08,-228 676.42,-228 676.42,-228 777.33,-228 777.33,-228 780.67,-228 784,-231.33 784,-234.67 784,-234.67 784,-241.33 784,-241.33 784,-244.67 780.67,-248 777.33,-248"/>
<text xml:space="preserve" text-anchor="middle" x="726.88" y="-234.5" font-family="Arial" font-size="10.00" fill="#c6c5fe">server/dev&#45;autologin.js</text>
</g>
<!-- server/dev&#45;autologin.js&#45;&gt;../lib/schemas/SimpleSchemas/Patients.js -->
<g id="edge23" class="edge">
<title>server/dev&#45;autologin.js&#45;&gt;../lib/schemas/SimpleSchemas/Patients.js</title>
<path fill="none" stroke="#757575" d="M784.39,-238C807.39,-238 834.81,-238 861.52,-238"/>
<polygon fill="#757575" stroke="#757575" points="861.4,-241.5 871.4,-238 861.4,-234.5 861.4,-241.5"/>
</g>
<!-- server/email&#45;config.js -->
<g id="node28" class="node">
<title>server/email&#45;config.js</title>
<path fill="none" stroke="#cfffac" d="M774.71,-438C774.71,-438 679.04,-438 679.04,-438 675.71,-438 672.38,-434.67 672.38,-431.33 672.38,-431.33 672.38,-424.67 672.38,-424.67 672.38,-421.33 675.71,-418 679.04,-418 679.04,-418 774.71,-418 774.71,-418 778.04,-418 781.38,-421.33 781.38,-424.67 781.38,-424.67 781.38,-431.33 781.38,-431.33 781.38,-434.67 778.04,-438 774.71,-438"/>
<text xml:space="preserve" text-anchor="middle" x="726.88" y="-424.5" font-family="Arial" font-size="10.00" fill="#cfffac">server/email&#45;config.js</text>
</g>
<!-- server/methods.js -->
<g id="node29" class="node">
<title>server/methods.js</title>
<path fill="none" stroke="#c6c5fe" d="M767.21,-400C767.21,-400 686.54,-400 686.54,-400 683.21,-400 679.88,-396.67 679.88,-393.33 679.88,-393.33 679.88,-386.67 679.88,-386.67 679.88,-383.33 683.21,-380 686.54,-380 686.54,-380 767.21,-380 767.21,-380 770.54,-380 773.88,-383.33 773.88,-386.67 773.88,-386.67 773.88,-393.33 773.88,-393.33 773.88,-396.67 770.54,-400 767.21,-400"/>
<text xml:space="preserve" text-anchor="middle" x="726.88" y="-386.5" font-family="Arial" font-size="10.00" fill="#c6c5fe">server/methods.js</text>
</g>
<!-- server/methods.js&#45;&gt;../lib/FhirUtilities.js -->
<g id="edge24" class="edge">
<title>server/methods.js&#45;&gt;../lib/FhirUtilities.js</title>
<path fill="none" stroke="#757575" d="M774.27,-394.13C785.74,-396.95 797.35,-401.56 806.5,-409 835.5,-432.58 812.44,-462.78 842.5,-485 862.67,-499.91 889.47,-505.53 913.53,-507.09"/>
<polygon fill="#757575" stroke="#757575" points="913.07,-510.57 923.21,-507.48 913.36,-503.58 913.07,-510.57"/>
</g>
<!-- server/methods.js&#45;&gt;../lib/schemas/SimpleSchemas/CarePlans.js -->
<g id="edge25" class="edge">
<title>server/methods.js&#45;&gt;../lib/schemas/SimpleSchemas/CarePlans.js</title>
<path fill="none" stroke="#757575" d="M774.07,-396.51C785.17,-399.31 796.66,-403.3 806.5,-409 826.63,-420.66 821.85,-436.29 842.5,-447 847.26,-449.47 852.25,-451.65 857.37,-453.56"/>
<polygon fill="#757575" stroke="#757575" points="856.03,-456.81 866.63,-456.66 858.26,-450.17 856.03,-456.81"/>
</g>
<!-- server/methods.js&#45;&gt;../lib/schemas/SimpleSchemas/CareTeams.js -->
<g id="edge26" class="edge">
<title>server/methods.js&#45;&gt;../lib/schemas/SimpleSchemas/CareTeams.js</title>
<path fill="none" stroke="#757575" d="M774.13,-397.88C795,-401.38 819.98,-405.49 842.5,-409 857.32,-411.31 873.11,-413.68 888.39,-415.93"/>
<polygon fill="#757575" stroke="#757575" points="887.5,-419.34 897.91,-417.33 888.52,-412.42 887.5,-419.34"/>
</g>
<!-- server/methods.js&#45;&gt;../lib/schemas/SimpleSchemas/Conditions.js -->
<g id="edge27" class="edge">
<title>server/methods.js&#45;&gt;../lib/schemas/SimpleSchemas/Conditions.js</title>
<path fill="none" stroke="#757575" d="M774.25,-390C797.68,-390 827.27,-390 856.41,-390"/>
<polygon fill="#757575" stroke="#757575" points="856.02,-393.5 866.02,-390 856.02,-386.5 856.02,-393.5"/>
</g>
<!-- server/methods.js&#45;&gt;../lib/schemas/SimpleSchemas/Devices.js -->
<g id="edge28" class="edge">
<title>server/methods.js&#45;&gt;../lib/schemas/SimpleSchemas/Devices.js</title>
<path fill="none" stroke="#757575" d="M774.13,-382.12C795,-378.62 819.98,-374.51 842.5,-371 857.32,-368.69 873.11,-366.32 888.39,-364.07"/>
<polygon fill="#757575" stroke="#757575" points="888.52,-367.58 897.91,-362.67 887.5,-360.66 888.52,-367.58"/>
</g>
<!-- server/methods.js&#45;&gt;../lib/schemas/SimpleSchemas/MedicationStatements.js -->
<g id="edge29" class="edge">
<title>server/methods.js&#45;&gt;../lib/schemas/SimpleSchemas/MedicationStatements.js</title>
<path fill="none" stroke="#757575" d="M774.07,-383.49C785.17,-380.69 796.66,-376.7 806.5,-371 826.63,-359.34 821.85,-343.71 842.5,-333 845.75,-331.31 849.1,-329.77 852.53,-328.34"/>
<polygon fill="#757575" stroke="#757575" points="853.45,-331.73 861.61,-324.97 851.01,-325.17 853.45,-331.73"/>
</g>
<!-- server/methods.js&#45;&gt;../lib/schemas/SimpleSchemas/Observations.js -->
<g id="edge30" class="edge">
<title>server/methods.js&#45;&gt;../lib/schemas/SimpleSchemas/Observations.js</title>
<path fill="none" stroke="#757575" d="M774.27,-385.87C785.74,-383.05 797.35,-378.44 806.5,-371 835.5,-347.42 812.44,-317.22 842.5,-295 845.49,-292.79 848.62,-290.78 851.87,-288.97"/>
<polygon fill="#757575" stroke="#757575" points="853.13,-292.25 860.58,-284.72 850.06,-285.96 853.13,-292.25"/>
</g>
<!-- server/methods.js&#45;&gt;../lib/schemas/SimpleSchemas/Patients.js -->
<g id="edge31" class="edge">
<title>server/methods.js&#45;&gt;../lib/schemas/SimpleSchemas/Patients.js</title>
<path fill="none" stroke="#757575" d="M774.16,-386.89C785.9,-384.09 797.67,-379.24 806.5,-371 845.34,-334.74 802.03,-291.42 842.5,-257 848.47,-251.92 855.18,-247.86 862.32,-244.64"/>
<polygon fill="#757575" stroke="#757575" points="863.57,-247.91 871.64,-241.04 861.05,-241.38 863.57,-247.91"/>
</g>
<!-- server/methods.js&#45;&gt;../lib/schemas/SimpleSchemas/Practitioners.js -->
<g id="edge32" class="edge">
<title>server/methods.js&#45;&gt;../lib/schemas/SimpleSchemas/Practitioners.js</title>
<path fill="none" stroke="#757575" d="M774.16,-392.59C786.04,-395.37 797.88,-400.34 806.5,-409 855.48,-458.2 791.3,-514.11 842.5,-561 845.91,-564.13 849.6,-566.88 853.5,-569.29"/>
<polygon fill="#757575" stroke="#757575" points="851.77,-572.34 862.25,-573.92 855.04,-566.15 851.77,-572.34"/>
</g>
<!-- server/methods.js&#45;&gt;../lib/schemas/SimpleSchemas/Procedures.js -->
<g id="edge33" class="edge">
<title>server/methods.js&#45;&gt;../lib/schemas/SimpleSchemas/Procedures.js</title>
<path fill="none" stroke="#757575" d="M774.16,-393.11C785.9,-395.91 797.67,-400.76 806.5,-409 845.34,-445.26 802.03,-488.58 842.5,-523 846.69,-526.56 851.24,-529.63 856.05,-532.25"/>
<polygon fill="#757575" stroke="#757575" points="854.35,-535.31 864.89,-536.39 857.32,-528.98 854.35,-535.31"/>
</g>
<!-- server/middleware.js -->
<g id="node30" class="node">
<title>server/middleware.js</title>
<path fill="none" stroke="#cfffac" d="M773.21,-362C773.21,-362 680.54,-362 680.54,-362 677.21,-362 673.88,-358.67 673.88,-355.33 673.88,-355.33 673.88,-348.67 673.88,-348.67 673.88,-345.33 677.21,-342 680.54,-342 680.54,-342 773.21,-342 773.21,-342 776.54,-342 779.88,-345.33 779.88,-348.67 779.88,-348.67 779.88,-355.33 779.88,-355.33 779.88,-358.67 776.54,-362 773.21,-362"/>
<text xml:space="preserve" text-anchor="middle" x="726.88" y="-348.5" font-family="Arial" font-size="10.00" fill="#cfffac">server/middleware.js</text>
</g>
<!-- server/oauth&#45;integration.js -->
<g id="node31" class="node">
<title>server/oauth&#45;integration.js</title>
<path fill="none" stroke="#cfffac" d="M784.46,-324C784.46,-324 669.29,-324 669.29,-324 665.96,-324 662.62,-320.67 662.62,-317.33 662.62,-317.33 662.62,-310.67 662.62,-310.67 662.62,-307.33 665.96,-304 669.29,-304 669.29,-304 784.46,-304 784.46,-304 787.79,-304 791.12,-307.33 791.12,-310.67 791.12,-310.67 791.12,-317.33 791.12,-317.33 791.12,-320.67 787.79,-324 784.46,-324"/>
<text xml:space="preserve" text-anchor="middle" x="726.88" y="-310.5" font-family="Arial" font-size="10.00" fill="#cfffac">server/oauth&#45;integration.js</text>
</g>
<!-- server/simple&#45;auth&#45;methods.js -->
<g id="node32" class="node">
<title>server/simple&#45;auth&#45;methods.js</title>
<path fill="none" stroke="#cfffac" d="M149.21,-305C149.21,-305 15.29,-305 15.29,-305 11.96,-305 8.62,-301.67 8.62,-298.33 8.62,-298.33 8.62,-291.67 8.62,-291.67 8.62,-288.33 11.96,-285 15.29,-285 15.29,-285 149.21,-285 149.21,-285 152.54,-285 155.88,-288.33 155.88,-291.67 155.88,-291.67 155.88,-298.33 155.88,-298.33 155.88,-301.67 152.54,-305 149.21,-305"/>
<text xml:space="preserve" text-anchor="middle" x="82.25" y="-291.5" font-family="Arial" font-size="10.00" fill="#cfffac">server/simple&#45;auth&#45;methods.js</text>
</g>
<!-- server/startup.js -->
<g id="node33" class="node">
<title>server/startup.js</title>
<path fill="none" stroke="#c6c5fe" d="M564.46,-324C564.46,-324 491.29,-324 491.29,-324 487.96,-324 484.62,-320.67 484.62,-317.33 484.62,-317.33 484.62,-310.67 484.62,-310.67 484.62,-307.33 487.96,-304 491.29,-304 491.29,-304 564.46,-304 564.46,-304 567.79,-304 571.12,-307.33 571.12,-310.67 571.12,-310.67 571.12,-317.33 571.12,-317.33 571.12,-320.67 567.79,-324 564.46,-324"/>
<text xml:space="preserve" text-anchor="middle" x="527.88" y="-310.5" font-family="Arial" font-size="10.00" fill="#c6c5fe">server/startup.js</text>
</g>
<!-- server/startup.js&#45;&gt;server/accounts&#45;server.js -->
<g id="edge34" class="edge">
<title>server/startup.js&#45;&gt;server/accounts&#45;server.js</title>
<path fill="none" stroke="#757575" d="M538.56,-303.65C557.5,-284.03 601.6,-241.43 647.25,-219 650.93,-217.19 654.8,-215.55 658.76,-214.05"/>
<polygon fill="#757575" stroke="#757575" points="659.62,-217.46 667.97,-210.93 657.37,-210.83 659.62,-217.46"/>
</g>
<!-- server/startup.js&#45;&gt;server/dev&#45;autologin.js -->
<g id="edge35" class="edge">
<title>server/startup.js&#45;&gt;server/dev&#45;autologin.js</title>
<path fill="none" stroke="#757575" d="M547.21,-303.66C570.04,-291.14 610.52,-270.12 647.25,-257 652.87,-254.99 658.79,-253.13 664.76,-251.42"/>
<polygon fill="#757575" stroke="#757575" points="665.3,-254.89 674.04,-248.89 663.47,-248.14 665.3,-254.89"/>
</g>
<!-- server/startup.js&#45;&gt;server/email&#45;config.js -->
<g id="edge36" class="edge">
<title>server/startup.js&#45;&gt;server/email&#45;config.js</title>
<path fill="none" stroke="#757575" d="M538.56,-324.35C557.5,-343.97 601.6,-386.57 647.25,-409 651.69,-411.18 656.41,-413.13 661.23,-414.85"/>
<polygon fill="#757575" stroke="#757575" points="659.87,-418.09 670.46,-417.83 662.02,-411.43 659.87,-418.09"/>
</g>
<!-- server/startup.js&#45;&gt;server/methods.js -->
<g id="edge37" class="edge">
<title>server/startup.js&#45;&gt;server/methods.js</title>
<path fill="none" stroke="#757575" d="M547.21,-324.34C570.04,-336.86 610.52,-357.88 647.25,-371 654.1,-373.45 661.4,-375.68 668.68,-377.69"/>
<polygon fill="#757575" stroke="#757575" points="667.64,-381.03 678.2,-380.18 669.41,-374.26 667.64,-381.03"/>
</g>
<!-- server/startup.js&#45;&gt;server/middleware.js -->
<g id="edge38" class="edge">
<title>server/startup.js&#45;&gt;server/middleware.js</title>
<path fill="none" stroke="#757575" d="M571.62,-322.25C598.11,-327.36 632.62,-334.01 662.29,-339.73"/>
<polygon fill="#757575" stroke="#757575" points="661.42,-343.13 671.9,-341.59 662.75,-336.26 661.42,-343.13"/>
</g>
<!-- server/startup.js&#45;&gt;server/oauth&#45;integration.js -->
<g id="edge39" class="edge">
<title>server/startup.js&#45;&gt;server/oauth&#45;integration.js</title>
<path fill="none" stroke="#757575" d="M571.62,-314C594.79,-314 624.1,-314 650.93,-314"/>
<polygon fill="#757575" stroke="#757575" points="650.74,-317.5 660.74,-314 650.74,-310.5 650.74,-317.5"/>
</g>
<!-- server/test&#45;methods.js -->
<g id="node34" class="node">
<title>server/test&#45;methods.js</title>
<path fill="none" stroke="#cfffac" d="M776.96,-286C776.96,-286 676.79,-286 676.79,-286 673.46,-286 670.12,-282.67 670.12,-279.33 670.12,-279.33 670.12,-272.67 670.12,-272.67 670.12,-269.33 673.46,-266 676.79,-266 676.79,-266 776.96,-266 776.96,-266 780.29,-266 783.62,-269.33 783.62,-272.67 783.62,-272.67 783.62,-279.33 783.62,-279.33 783.62,-282.67 780.29,-286 776.96,-286"/>
<text xml:space="preserve" text-anchor="middle" x="726.88" y="-272.5" font-family="Arial" font-size="10.00" fill="#cfffac">server/test&#45;methods.js</text>
</g>
<!-- server/startup.js&#45;&gt;server/test&#45;methods.js -->
<g id="edge40" class="edge">
<title>server/startup.js&#45;&gt;server/test&#45;methods.js</title>
<path fill="none" stroke="#757575" d="M571.62,-305.75C597.61,-300.74 631.32,-294.24 660.6,-288.59"/>
<polygon fill="#757575" stroke="#757575" points="660.93,-292.09 670.09,-286.76 659.61,-285.22 660.93,-292.09"/>
</g>
<!-- shared/config.js -->
<g id="node35" class="node">
<title>shared/config.js</title>
<path fill="none" stroke="#cfffac" d="M118.08,-343C118.08,-343 46.42,-343 46.42,-343 43.08,-343 39.75,-339.67 39.75,-336.33 39.75,-336.33 39.75,-329.67 39.75,-329.67 39.75,-326.33 43.08,-323 46.42,-323 46.42,-323 118.08,-323 118.08,-323 121.42,-323 124.75,-326.33 124.75,-329.67 124.75,-329.67 124.75,-336.33 124.75,-336.33 124.75,-339.67 121.42,-343 118.08,-343"/>
<text xml:space="preserve" text-anchor="middle" x="82.25" y="-329.5" font-family="Arial" font-size="10.00" fill="#cfffac">shared/config.js</text>
</g>
</g>
</svg>
