<?xml version="1.0" encoding="UTF-8" standalone="no"?>
<!DOCTYPE svg PUBLIC "-//W3C//DTD SVG 1.1//EN"
 "http://www.w3.org/Graphics/SVG/1.1/DTD/svg11.dtd">
<!-- Generated by graphviz version 14.1.2 (20260124.0452)
 -->
<!-- Title: G Pages: 1 -->
<svg width="1081pt" height="2096pt"
 viewBox="0.00 0.00 1081.00 2096.00" xmlns="http://www.w3.org/2000/svg" xmlns:xlink="http://www.w3.org/1999/xlink">
<g id="graph0" class="graph" transform="scale(1 1) rotate(0) translate(21.6 2074.6)">
<title>G</title>
<polygon fill="#111111" stroke="none" points="-21.6,21.6 -21.6,-2074.6 1059.35,-2074.6 1059.35,21.6 -21.6,21.6"/>
<!-- ../lib/BaseModel.js -->
<g id="node1" class="node">
<title>../lib/BaseModel.js</title>
<path fill="none" stroke="#cfffac" d="M1031.08,-153C1031.08,-153 947.42,-153 947.42,-153 944.08,-153 940.75,-149.67 940.75,-146.33 940.75,-146.33 940.75,-139.67 940.75,-139.67 940.75,-136.33 944.08,-133 947.42,-133 947.42,-133 1031.08,-133 1031.08,-133 1034.42,-133 1037.75,-136.33 1037.75,-139.67 1037.75,-139.67 1037.75,-146.33 1037.75,-146.33 1037.75,-149.67 1034.42,-153 1031.08,-153"/>
<text xml:space="preserve" text-anchor="middle" x="989.25" y="-139.5" font-family="Arial" font-size="10.00" fill="#cfffac">../lib/BaseModel.js</text>
</g>
<!-- ../lib/FhirUtilities.js -->
<g id="node2" class="node">
<title>../lib/FhirUtilities.js</title>
<path fill="none" stroke="#cfffac" d="M346.33,-438C346.33,-438 261.92,-438 261.92,-438 258.58,-438 255.25,-434.67 255.25,-431.33 255.25,-431.33 255.25,-424.67 255.25,-424.67 255.25,-421.33 258.58,-418 261.92,-418 261.92,-418 346.33,-418 346.33,-418 349.67,-418 353,-421.33 353,-424.67 353,-424.67 353,-431.33 353,-431.33 353,-434.67 349.67,-438 346.33,-438"/>
<text xml:space="preserve" text-anchor="middle" x="304.12" y="-424.5" font-family="Arial" font-size="10.00" fill="#cfffac">../lib/FhirUtilities.js</text>
</g>
<!-- ../lib/HipaaLogger.js -->
<g id="node3" class="node">
<title>../lib/HipaaLogger.js</title>
<path fill="none" stroke="#cfffac" d="M348.96,-400C348.96,-400 259.29,-400 259.29,-400 255.96,-400 252.62,-396.67 252.62,-393.33 252.62,-393.33 252.62,-386.67 252.62,-386.67 252.62,-383.33 255.96,-380 259.29,-380 259.29,-380 348.96,-380 348.96,-380 352.29,-380 355.62,-383.33 355.62,-386.67 355.62,-386.67 355.62,-393.33 355.62,-393.33 355.62,-396.67 352.29,-400 348.96,-400"/>
<text xml:space="preserve" text-anchor="middle" x="304.12" y="-386.5" font-family="Arial" font-size="10.00" fill="#cfffac">../lib/HipaaLogger.js</text>
</g>
<!-- ../lib/schemas/SimpleSchemas/AuditEvents.js -->
<g id="node4" class="node">
<title>../lib/schemas/SimpleSchemas/AuditEvents.js</title>
<path fill="none" stroke="#c6c5fe" d="M877.08,-362C877.08,-362 671.92,-362 671.92,-362 668.58,-362 665.25,-358.67 665.25,-355.33 665.25,-355.33 665.25,-348.67 665.25,-348.67 665.25,-345.33 668.58,-342 671.92,-342 671.92,-342 877.08,-342 877.08,-342 880.42,-342 883.75,-345.33 883.75,-348.67 883.75,-348.67 883.75,-355.33 883.75,-355.33 883.75,-358.67 880.42,-362 877.08,-362"/>
<text xml:space="preserve" text-anchor="middle" x="774.5" y="-348.5" font-family="Arial" font-size="10.00" fill="#c6c5fe">../lib/schemas/SimpleSchemas/AuditEvents.js</text>
</g>
<!-- ../lib/schemas/SimpleSchemas/AuditEvents.js&#45;&gt;../lib/BaseModel.js -->
<g id="edge1" class="edge">
<title>../lib/schemas/SimpleSchemas/AuditEvents.js&#45;&gt;../lib/BaseModel.js</title>
<path fill="none" stroke="#757575" d="M816.37,-341.5C843.93,-332.75 879.71,-317.95 904.75,-295 945.29,-257.84 970.49,-196.32 981.6,-164.13"/>
<polygon fill="#757575" stroke="#757575" points="984.88,-165.36 984.7,-154.77 978.23,-163.17 984.88,-165.36"/>
</g>
<!-- ../lib/schemas/SimpleSchemas/Communications.js -->
<g id="node5" class="node">
<title>../lib/schemas/SimpleSchemas/Communications.js</title>
<path fill="none" stroke="#c6c5fe" d="M887.21,-286C887.21,-286 661.79,-286 661.79,-286 658.46,-286 655.12,-282.67 655.12,-279.33 655.12,-279.33 655.12,-272.67 655.12,-272.67 655.12,-269.33 658.46,-266 661.79,-266 661.79,-266 887.21,-266 887.21,-266 890.54,-266 893.88,-269.33 893.88,-272.67 893.88,-272.67 893.88,-279.33 893.88,-279.33 893.88,-282.67 890.54,-286 887.21,-286"/>
<text xml:space="preserve" text-anchor="middle" x="774.5" y="-272.5" font-family="Arial" font-size="10.00" fill="#c6c5fe">../lib/schemas/SimpleSchemas/Communications.js</text>
</g>
<!-- ../lib/schemas/SimpleSchemas/Communications.js&#45;&gt;../lib/BaseModel.js -->
<g id="edge2" class="edge">
<title>../lib/schemas/SimpleSchemas/Communications.js&#45;&gt;../lib/BaseModel.js</title>
<path fill="none" stroke="#757575" d="M806.43,-265.59C833.54,-255.72 873.4,-239.4 904.75,-219 930.12,-202.49 955.26,-178.25 971.22,-161.61"/>
<polygon fill="#757575" stroke="#757575" points="973.75,-164.03 978.05,-154.35 968.65,-159.23 973.75,-164.03"/>
</g>
<!-- ../lib/schemas/SimpleSchemas/Compositions.js -->
<g id="node6" class="node">
<title>../lib/schemas/SimpleSchemas/Compositions.js</title>
<path fill="none" stroke="#c6c5fe" d="M880.46,-210C880.46,-210 668.54,-210 668.54,-210 665.21,-210 661.88,-206.67 661.88,-203.33 661.88,-203.33 661.88,-196.67 661.88,-196.67 661.88,-193.33 665.21,-190 668.54,-190 668.54,-190 880.46,-190 880.46,-190 883.79,-190 887.12,-193.33 887.12,-196.67 887.12,-196.67 887.12,-203.33 887.12,-203.33 887.12,-206.67 883.79,-210 880.46,-210"/>
<text xml:space="preserve" text-anchor="middle" x="774.5" y="-196.5" font-family="Arial" font-size="10.00" fill="#c6c5fe">../lib/schemas/SimpleSchemas/Compositions.js</text>
</g>
<!-- ../lib/schemas/SimpleSchemas/Compositions.js&#45;&gt;../lib/BaseModel.js -->
<g id="edge3" class="edge">
<title>../lib/schemas/SimpleSchemas/Compositions.js&#45;&gt;../lib/BaseModel.js</title>
<path fill="none" stroke="#757575" d="M868.67,-189.51C880.92,-187.2 893.22,-184.4 904.75,-181 923.62,-175.44 943.71,-166.4 959.46,-158.53"/>
<polygon fill="#757575" stroke="#757575" points="960.96,-161.7 968.26,-154.02 957.76,-155.47 960.96,-161.7"/>
</g>
<!-- ../lib/schemas/SimpleSchemas/Devices.js -->
<g id="node7" class="node">
<title>../lib/schemas/SimpleSchemas/Devices.js</title>
<path fill="none" stroke="#c6c5fe" d="M868.46,-172C868.46,-172 680.54,-172 680.54,-172 677.21,-172 673.88,-168.67 673.88,-165.33 673.88,-165.33 673.88,-158.67 673.88,-158.67 673.88,-155.33 677.21,-152 680.54,-152 680.54,-152 868.46,-152 868.46,-152 871.79,-152 875.12,-155.33 875.12,-158.67 875.12,-158.67 875.12,-165.33 875.12,-165.33 875.12,-168.67 871.79,-172 868.46,-172"/>
<text xml:space="preserve" text-anchor="middle" x="774.5" y="-158.5" font-family="Arial" font-size="10.00" fill="#c6c5fe">../lib/schemas/SimpleSchemas/Devices.js</text>
</g>
<!-- ../lib/schemas/SimpleSchemas/Devices.js&#45;&gt;../lib/BaseModel.js -->
<g id="edge4" class="edge">
<title>../lib/schemas/SimpleSchemas/Devices.js&#45;&gt;../lib/BaseModel.js</title>
<path fill="none" stroke="#757575" d="M875.33,-153.08C893.75,-151.44 912.44,-149.77 929.16,-148.28"/>
<polygon fill="#757575" stroke="#757575" points="929.25,-151.78 938.89,-147.41 928.62,-144.81 929.25,-151.78"/>
</g>
<!-- ../lib/schemas/SimpleSchemas/DocumentReferences.js -->
<g id="node8" class="node">
<title>../lib/schemas/SimpleSchemas/DocumentReferences.js</title>
<path fill="none" stroke="#c6c5fe" d="M898.08,-134C898.08,-134 650.92,-134 650.92,-134 647.58,-134 644.25,-130.67 644.25,-127.33 644.25,-127.33 644.25,-120.67 644.25,-120.67 644.25,-117.33 647.58,-114 650.92,-114 650.92,-114 898.08,-114 898.08,-114 901.42,-114 904.75,-117.33 904.75,-120.67 904.75,-120.67 904.75,-127.33 904.75,-127.33 904.75,-130.67 901.42,-134 898.08,-134"/>
<text xml:space="preserve" text-anchor="middle" x="774.5" y="-120.5" font-family="Arial" font-size="10.00" fill="#c6c5fe">../lib/schemas/SimpleSchemas/DocumentReferences.js</text>
</g>
<!-- ../lib/schemas/SimpleSchemas/DocumentReferences.js&#45;&gt;../lib/BaseModel.js -->
<g id="edge5" class="edge">
<title>../lib/schemas/SimpleSchemas/DocumentReferences.js&#45;&gt;../lib/BaseModel.js</title>
<path fill="none" stroke="#757575" d="M892.77,-134.47C905.34,-135.6 917.7,-136.7 929.15,-137.72"/>
<polygon fill="#757575" stroke="#757575" points="928.49,-141.18 938.76,-138.58 929.11,-134.2 928.49,-141.18"/>
</g>
<!-- ../lib/schemas/SimpleSchemas/Patients.js -->
<g id="node9" class="node">
<title>../lib/schemas/SimpleSchemas/Patients.js</title>
<path fill="none" stroke="#c6c5fe" d="M868.46,-96C868.46,-96 680.54,-96 680.54,-96 677.21,-96 673.88,-92.67 673.88,-89.33 673.88,-89.33 673.88,-82.67 673.88,-82.67 673.88,-79.33 677.21,-76 680.54,-76 680.54,-76 868.46,-76 868.46,-76 871.79,-76 875.12,-79.33 875.12,-82.67 875.12,-82.67 875.12,-89.33 875.12,-89.33 875.12,-92.67 871.79,-96 868.46,-96"/>
<text xml:space="preserve" text-anchor="middle" x="774.5" y="-82.5" font-family="Arial" font-size="10.00" fill="#c6c5fe">../lib/schemas/SimpleSchemas/Patients.js</text>
</g>
<!-- ../lib/schemas/SimpleSchemas/Patients.js&#45;&gt;../lib/BaseModel.js -->
<g id="edge6" class="edge">
<title>../lib/schemas/SimpleSchemas/Patients.js&#45;&gt;../lib/BaseModel.js</title>
<path fill="none" stroke="#757575" d="M868.67,-96.49C880.92,-98.8 893.22,-101.6 904.75,-105 923.62,-110.56 943.71,-119.6 959.46,-127.47"/>
<polygon fill="#757575" stroke="#757575" points="957.76,-130.53 968.26,-131.98 960.96,-124.3 957.76,-130.53"/>
</g>
<!-- ../lib/schemas/SimpleSchemas/PractitionerRoles.js -->
<g id="node10" class="node">
<title>../lib/schemas/SimpleSchemas/PractitionerRoles.js</title>
<path fill="none" stroke="#c6c5fe" d="M887.96,-58C887.96,-58 661.04,-58 661.04,-58 657.71,-58 654.38,-54.67 654.38,-51.33 654.38,-51.33 654.38,-44.67 654.38,-44.67 654.38,-41.33 657.71,-38 661.04,-38 661.04,-38 887.96,-38 887.96,-38 891.29,-38 894.62,-41.33 894.62,-44.67 894.62,-44.67 894.62,-51.33 894.62,-51.33 894.62,-54.67 891.29,-58 887.96,-58"/>
<text xml:space="preserve" text-anchor="middle" x="774.5" y="-44.5" font-family="Arial" font-size="10.00" fill="#c6c5fe">../lib/schemas/SimpleSchemas/PractitionerRoles.js</text>
</g>
<!-- ../lib/schemas/SimpleSchemas/PractitionerRoles.js&#45;&gt;../lib/BaseModel.js -->
<g id="edge7" class="edge">
<title>../lib/schemas/SimpleSchemas/PractitionerRoles.js&#45;&gt;../lib/BaseModel.js</title>
<path fill="none" stroke="#757575" d="M882.12,-58.44C889.95,-60.78 897.58,-63.6 904.75,-67 932.81,-80.29 958.11,-106.22 973.33,-124.07"/>
<polygon fill="#757575" stroke="#757575" points="970.3,-125.9 979.36,-131.39 975.7,-121.45 970.3,-125.9"/>
</g>
<!-- ../lib/schemas/SimpleSchemas/Practitioners.js -->
<g id="node11" class="node">
<title>../lib/schemas/SimpleSchemas/Practitioners.js</title>
<path fill="none" stroke="#c6c5fe" d="M877.83,-20C877.83,-20 671.17,-20 671.17,-20 667.83,-20 664.5,-16.67 664.5,-13.33 664.5,-13.33 664.5,-6.67 664.5,-6.67 664.5,-3.33 667.83,0 671.17,0 671.17,0 877.83,0 877.83,0 881.17,0 884.5,-3.33 884.5,-6.67 884.5,-6.67 884.5,-13.33 884.5,-13.33 884.5,-16.67 881.17,-20 877.83,-20"/>
<text xml:space="preserve" text-anchor="middle" x="774.5" y="-6.5" font-family="Arial" font-size="10.00" fill="#c6c5fe">../lib/schemas/SimpleSchemas/Practitioners.js</text>
</g>
<!-- ../lib/schemas/SimpleSchemas/Practitioners.js&#45;&gt;../lib/BaseModel.js -->
<g id="edge8" class="edge">
<title>../lib/schemas/SimpleSchemas/Practitioners.js&#45;&gt;../lib/BaseModel.js</title>
<path fill="none" stroke="#757575" d="M884.92,-19.58C891.85,-22.15 898.53,-25.25 904.75,-29 941.36,-51.06 966.81,-95.89 979.34,-122.28"/>
<polygon fill="#757575" stroke="#757575" points="976.1,-123.62 983.42,-131.28 982.47,-120.73 976.1,-123.62"/>
</g>
<!-- ../lib/validatedMethods/communications.js -->
<g id="node12" class="node">
<title>../lib/validatedMethods/communications.js</title>
<path fill="none" stroke="#c6c5fe" d="M601.58,-286C601.58,-286 415.92,-286 415.92,-286 412.58,-286 409.25,-282.67 409.25,-279.33 409.25,-279.33 409.25,-272.67 409.25,-272.67 409.25,-269.33 412.58,-266 415.92,-266 415.92,-266 601.58,-266 601.58,-266 604.92,-266 608.25,-269.33 608.25,-272.67 608.25,-272.67 608.25,-279.33 608.25,-279.33 608.25,-282.67 604.92,-286 601.58,-286"/>
<text xml:space="preserve" text-anchor="middle" x="508.75" y="-272.5" font-family="Arial" font-size="10.00" fill="#c6c5fe">../lib/validatedMethods/communications.js</text>
</g>
<!-- ../lib/validatedMethods/communications.js&#45;&gt;../lib/schemas/SimpleSchemas/Communications.js -->
<g id="edge9" class="edge">
<title>../lib/validatedMethods/communications.js&#45;&gt;../lib/schemas/SimpleSchemas/Communications.js</title>
<path fill="none" stroke="#757575" d="M608.71,-276C620.12,-276 631.88,-276 643.62,-276"/>
<polygon fill="#757575" stroke="#757575" points="643.34,-279.5 653.34,-276 643.34,-272.5 643.34,-279.5"/>
</g>
<!-- AuditEvents/AuditEvents.js -->
<g id="node13" class="node">
<title>AuditEvents/AuditEvents.js</title>
<path fill="none" stroke="#c6c5fe" d="M570.08,-400C570.08,-400 447.42,-400 447.42,-400 444.08,-400 440.75,-396.67 440.75,-393.33 440.75,-393.33 440.75,-386.67 440.75,-386.67 440.75,-383.33 444.08,-380 447.42,-380 447.42,-380 570.08,-380 570.08,-380 573.42,-380 576.75,-383.33 576.75,-386.67 576.75,-386.67 576.75,-393.33 576.75,-393.33 576.75,-396.67 573.42,-400 570.08,-400"/>
<text xml:space="preserve" text-anchor="middle" x="508.75" y="-386.5" font-family="Arial" font-size="10.00" fill="#c6c5fe">AuditEvents/AuditEvents.js</text>
</g>
<!-- AuditEvents/AuditEvents.js&#45;&gt;../lib/schemas/SimpleSchemas/AuditEvents.js -->
<g id="edge10" class="edge">
<title>AuditEvents/AuditEvents.js&#45;&gt;../lib/schemas/SimpleSchemas/AuditEvents.js</title>
<path fill="none" stroke="#757575" d="M576.99,-380.31C611.29,-375.37 653.34,-369.31 689.73,-364.07"/>
<polygon fill="#757575" stroke="#757575" points="689.93,-367.58 699.33,-362.69 688.93,-360.65 689.93,-367.58"/>
</g>
<!-- activityDefinitions/methods.js -->
<g id="node14" class="node">
<title>activityDefinitions/methods.js</title>
<path fill="none" stroke="#cfffac" d="M165.33,-457C165.33,-457 33.67,-457 33.67,-457 30.33,-457 27,-453.67 27,-450.33 27,-450.33 27,-443.67 27,-443.67 27,-440.33 30.33,-437 33.67,-437 33.67,-437 165.33,-437 165.33,-437 168.67,-437 172,-440.33 172,-443.67 172,-443.67 172,-450.33 172,-450.33 172,-453.67 168.67,-457 165.33,-457"/>
<text xml:space="preserve" text-anchor="middle" x="99.5" y="-443.5" font-family="Arial" font-size="10.00" fill="#cfffac">activityDefinitions/methods.js</text>
</g>
<!-- allergyIntolerances/methods.js -->
<g id="node15" class="node">
<title>allergyIntolerances/methods.js</title>
<path fill="none" stroke="#cfffac" d="M167.21,-495C167.21,-495 31.79,-495 31.79,-495 28.46,-495 25.12,-491.67 25.12,-488.33 25.12,-488.33 25.12,-481.67 25.12,-481.67 25.12,-478.33 28.46,-475 31.79,-475 31.79,-475 167.21,-475 167.21,-475 170.54,-475 173.88,-478.33 173.88,-481.67 173.88,-481.67 173.88,-488.33 173.88,-488.33 173.88,-491.67 170.54,-495 167.21,-495"/>
<text xml:space="preserve" text-anchor="middle" x="99.5" y="-481.5" font-family="Arial" font-size="10.00" fill="#cfffac">allergyIntolerances/methods.js</text>
</g>
<!-- appointments/methods.js -->
<g id="node16" class="node">
<title>appointments/methods.js</title>
<path fill="none" stroke="#cfffac" d="M155.58,-533C155.58,-533 43.42,-533 43.42,-533 40.08,-533 36.75,-529.67 36.75,-526.33 36.75,-526.33 36.75,-519.67 36.75,-519.67 36.75,-516.33 40.08,-513 43.42,-513 43.42,-513 155.58,-513 155.58,-513 158.92,-513 162.25,-516.33 162.25,-519.67 162.25,-519.67 162.25,-526.33 162.25,-526.33 162.25,-529.67 158.92,-533 155.58,-533"/>
<text xml:space="preserve" text-anchor="middle" x="99.5" y="-519.5" font-family="Arial" font-size="10.00" fill="#cfffac">appointments/methods.js</text>
</g>
<!-- bodyStructures/methods.js -->
<g id="node17" class="node">
<title>bodyStructures/methods.js</title>
<path fill="none" stroke="#cfffac" d="M159.33,-571C159.33,-571 39.67,-571 39.67,-571 36.33,-571 33,-567.67 33,-564.33 33,-564.33 33,-557.67 33,-557.67 33,-554.33 36.33,-551 39.67,-551 39.67,-551 159.33,-551 159.33,-551 162.67,-551 166,-554.33 166,-557.67 166,-557.67 166,-564.33 166,-564.33 166,-567.67 162.67,-571 159.33,-571"/>
<text xml:space="preserve" text-anchor="middle" x="99.5" y="-557.5" font-family="Arial" font-size="10.00" fill="#cfffac">bodyStructures/methods.js</text>
</g>
<!-- carePlans/methods.js -->
<g id="node18" class="node">
<title>carePlans/methods.js</title>
<path fill="none" stroke="#cfffac" d="M148.08,-609C148.08,-609 50.92,-609 50.92,-609 47.58,-609 44.25,-605.67 44.25,-602.33 44.25,-602.33 44.25,-595.67 44.25,-595.67 44.25,-592.33 47.58,-589 50.92,-589 50.92,-589 148.08,-589 148.08,-589 151.42,-589 154.75,-592.33 154.75,-595.67 154.75,-595.67 154.75,-602.33 154.75,-602.33 154.75,-605.67 151.42,-609 148.08,-609"/>
<text xml:space="preserve" text-anchor="middle" x="99.5" y="-595.5" font-family="Arial" font-size="10.00" fill="#cfffac">carePlans/methods.js</text>
</g>
<!-- careTeams/methods.js -->
<g id="node19" class="node">
<title>careTeams/methods.js</title>
<path fill="none" stroke="#cfffac" d="M150.33,-647C150.33,-647 48.67,-647 48.67,-647 45.33,-647 42,-643.67 42,-640.33 42,-640.33 42,-633.67 42,-633.67 42,-630.33 45.33,-627 48.67,-627 48.67,-627 150.33,-627 150.33,-627 153.67,-627 157,-630.33 157,-633.67 157,-633.67 157,-640.33 157,-640.33 157,-643.67 153.67,-647 150.33,-647"/>
<text xml:space="preserve" text-anchor="middle" x="99.5" y="-633.5" font-family="Arial" font-size="10.00" fill="#cfffac">careTeams/methods.js</text>
</g>
<!-- clinicalImpressions/methods.js -->
<g id="node20" class="node">
<title>clinicalImpressions/methods.js</title>
<path fill="none" stroke="#cfffac" d="M167.96,-685C167.96,-685 31.04,-685 31.04,-685 27.71,-685 24.38,-681.67 24.38,-678.33 24.38,-678.33 24.38,-671.67 24.38,-671.67 24.38,-668.33 27.71,-665 31.04,-665 31.04,-665 167.96,-665 167.96,-665 171.29,-665 174.62,-668.33 174.62,-671.67 174.62,-671.67 174.62,-678.33 174.62,-678.33 174.62,-681.67 171.29,-685 167.96,-685"/>
<text xml:space="preserve" text-anchor="middle" x="99.5" y="-671.5" font-family="Arial" font-size="10.00" fill="#cfffac">clinicalImpressions/methods.js</text>
</g>
<!-- communications/client.js -->
<g id="node21" class="node">
<title>communications/client.js</title>
<path fill="none" stroke="#c6c5fe" d="M564.08,-248C564.08,-248 453.42,-248 453.42,-248 450.08,-248 446.75,-244.67 446.75,-241.33 446.75,-241.33 446.75,-234.67 446.75,-234.67 446.75,-231.33 450.08,-228 453.42,-228 453.42,-228 564.08,-228 564.08,-228 567.42,-228 570.75,-231.33 570.75,-234.67 570.75,-234.67 570.75,-241.33 570.75,-241.33 570.75,-244.67 567.42,-248 564.08,-248"/>
<text xml:space="preserve" text-anchor="middle" x="508.75" y="-234.5" font-family="Arial" font-size="10.00" fill="#c6c5fe">communications/client.js</text>
</g>
<!-- communications/client.js&#45;&gt;../lib/schemas/SimpleSchemas/Communications.js -->
<g id="edge11" class="edge">
<title>communications/client.js&#45;&gt;../lib/schemas/SimpleSchemas/Communications.js</title>
<path fill="none" stroke="#757575" d="M570.92,-246.81C606.24,-251.9 651.17,-258.37 689.73,-263.93"/>
<polygon fill="#757575" stroke="#757575" points="689.05,-267.37 699.45,-265.33 690.05,-260.44 689.05,-267.37"/>
</g>
<!-- communications/index.js -->
<g id="node22" class="node">
<title>communications/index.js</title>
<path fill="none" stroke="#cfffac" d="M154.83,-723C154.83,-723 44.17,-723 44.17,-723 40.83,-723 37.5,-719.67 37.5,-716.33 37.5,-716.33 37.5,-709.67 37.5,-709.67 37.5,-706.33 40.83,-703 44.17,-703 44.17,-703 154.83,-703 154.83,-703 158.17,-703 161.5,-706.33 161.5,-709.67 161.5,-709.67 161.5,-716.33 161.5,-716.33 161.5,-719.67 158.17,-723 154.83,-723"/>
<text xml:space="preserve" text-anchor="middle" x="99.5" y="-709.5" font-family="Arial" font-size="10.00" fill="#cfffac">communications/index.js</text>
</g>
<!-- communications/methods.js -->
<g id="node23" class="node">
<title>communications/methods.js</title>
<path fill="none" stroke="#c6c5fe" d="M366.58,-324C366.58,-324 241.67,-324 241.67,-324 238.33,-324 235,-320.67 235,-317.33 235,-317.33 235,-310.67 235,-310.67 235,-307.33 238.33,-304 241.67,-304 241.67,-304 366.58,-304 366.58,-304 369.92,-304 373.25,-307.33 373.25,-310.67 373.25,-310.67 373.25,-317.33 373.25,-317.33 373.25,-320.67 369.92,-324 366.58,-324"/>
<text xml:space="preserve" text-anchor="middle" x="304.12" y="-310.5" font-family="Arial" font-size="10.00" fill="#c6c5fe">communications/methods.js</text>
</g>
<!-- communications/methods.js&#45;&gt;../lib/schemas/SimpleSchemas/Communications.js -->
<g id="edge12" class="edge">
<title>communications/methods.js&#45;&gt;../lib/schemas/SimpleSchemas/Communications.js</title>
<path fill="none" stroke="#757575" d="M373.52,-310.73C435.01,-307.54 527.76,-302.15 608.25,-295 631.12,-292.97 655.71,-290.37 678.77,-287.75"/>
<polygon fill="#757575" stroke="#757575" points="678.91,-291.25 688.44,-286.63 678.1,-284.3 678.91,-291.25"/>
</g>
<!-- communications/methods.js&#45;&gt;../lib/validatedMethods/communications.js -->
<g id="edge13" class="edge">
<title>communications/methods.js&#45;&gt;../lib/validatedMethods/communications.js</title>
<path fill="none" stroke="#757575" d="M361.03,-303.52C385.72,-298.88 414.95,-293.4 440.8,-288.56"/>
<polygon fill="#757575" stroke="#757575" points="441.36,-292.01 450.54,-286.73 440.07,-285.13 441.36,-292.01"/>
</g>
<!-- communications/methods.tests.js -->
<g id="node24" class="node">
<title>communications/methods.tests.js</title>
<path fill="none" stroke="#c6c5fe" d="M174.33,-343C174.33,-343 24.67,-343 24.67,-343 21.33,-343 18,-339.67 18,-336.33 18,-336.33 18,-329.67 18,-329.67 18,-326.33 21.33,-323 24.67,-323 24.67,-323 174.33,-323 174.33,-323 177.67,-323 181,-326.33 181,-329.67 181,-329.67 181,-336.33 181,-336.33 181,-339.67 177.67,-343 174.33,-343"/>
<text xml:space="preserve" text-anchor="middle" x="99.5" y="-329.5" font-family="Arial" font-size="10.00" fill="#c6c5fe">communications/methods.tests.js</text>
</g>
<!-- communications/methods.tests.js&#45;&gt;../lib/schemas/SimpleSchemas/Communications.js -->
<g id="edge14" class="edge">
<title>communications/methods.tests.js&#45;&gt;../lib/schemas/SimpleSchemas/Communications.js</title>
<path fill="none" stroke="#757575" d="M181.09,-336.29C281.71,-339.03 458.8,-339.33 608.25,-316 648.69,-309.69 693.8,-298.48 726.66,-289.53"/>
<polygon fill="#757575" stroke="#757575" points="727.57,-292.91 736.28,-286.87 725.71,-286.16 727.57,-292.91"/>
</g>
<!-- communications/methods.tests.js&#45;&gt;communications/methods.js -->
<g id="edge15" class="edge">
<title>communications/methods.tests.js&#45;&gt;communications/methods.js</title>
<path fill="none" stroke="#757575" d="M181.46,-325.41C195.24,-324.12 209.54,-322.78 223.29,-321.49"/>
<polygon fill="#757575" stroke="#757575" points="223.55,-324.98 233.18,-320.56 222.89,-318.01 223.55,-324.98"/>
</g>
<!-- compositions/methods.js -->
<g id="node25" class="node">
<title>compositions/methods.js</title>
<path fill="none" stroke="#c6c5fe" d="M564.46,-210C564.46,-210 453.04,-210 453.04,-210 449.71,-210 446.38,-206.67 446.38,-203.33 446.38,-203.33 446.38,-196.67 446.38,-196.67 446.38,-193.33 449.71,-190 453.04,-190 453.04,-190 564.46,-190 564.46,-190 567.79,-190 571.12,-193.33 571.12,-196.67 571.12,-196.67 571.12,-203.33 571.12,-203.33 571.12,-206.67 567.79,-210 564.46,-210"/>
<text xml:space="preserve" text-anchor="middle" x="508.75" y="-196.5" font-family="Arial" font-size="10.00" fill="#c6c5fe">compositions/methods.js</text>
</g>
<!-- compositions/methods.js&#45;&gt;../lib/schemas/SimpleSchemas/Compositions.js -->
<g id="edge16" class="edge">
<title>compositions/methods.js&#45;&gt;../lib/schemas/SimpleSchemas/Compositions.js</title>
<path fill="none" stroke="#757575" d="M571.59,-200C595.14,-200 622.89,-200 650.15,-200"/>
<polygon fill="#757575" stroke="#757575" points="649.87,-203.5 659.87,-200 649.87,-196.5 649.87,-203.5"/>
</g>
<!-- conditions/methods.js -->
<g id="node26" class="node">
<title>conditions/methods.js</title>
<path fill="none" stroke="#cfffac" d="M148.46,-761C148.46,-761 50.54,-761 50.54,-761 47.21,-761 43.88,-757.67 43.88,-754.33 43.88,-754.33 43.88,-747.67 43.88,-747.67 43.88,-744.33 47.21,-741 50.54,-741 50.54,-741 148.46,-741 148.46,-741 151.79,-741 155.12,-744.33 155.12,-747.67 155.12,-747.67 155.12,-754.33 155.12,-754.33 155.12,-757.67 151.79,-761 148.46,-761"/>
<text xml:space="preserve" text-anchor="middle" x="99.5" y="-747.5" font-family="Arial" font-size="10.00" fill="#cfffac">conditions/methods.js</text>
</g>
<!-- consents/methods.js -->
<g id="node27" class="node">
<title>consents/methods.js</title>
<path fill="none" stroke="#c6c5fe" d="M146.21,-419C146.21,-419 52.79,-419 52.79,-419 49.46,-419 46.13,-415.67 46.13,-412.33 46.13,-412.33 46.13,-405.67 46.13,-405.67 46.13,-402.33 49.46,-399 52.79,-399 52.79,-399 146.21,-399 146.21,-399 149.54,-399 152.88,-402.33 152.88,-405.67 152.88,-405.67 152.88,-412.33 152.88,-412.33 152.88,-415.67 149.54,-419 146.21,-419"/>
<text xml:space="preserve" text-anchor="middle" x="99.5" y="-405.5" font-family="Arial" font-size="10.00" fill="#c6c5fe">consents/methods.js</text>
</g>
<!-- consents/methods.js&#45;&gt;../lib/FhirUtilities.js -->
<g id="edge17" class="edge">
<title>consents/methods.js&#45;&gt;../lib/FhirUtilities.js</title>
<path fill="none" stroke="#757575" d="M153.21,-413.94C180.95,-416.54 215.07,-419.74 243.74,-422.43"/>
<polygon fill="#757575" stroke="#757575" points="243.05,-425.88 253.34,-423.33 243.71,-418.91 243.05,-425.88"/>
</g>
<!-- consents/methods.js&#45;&gt;../lib/HipaaLogger.js -->
<g id="edge18" class="edge">
<title>consents/methods.js&#45;&gt;../lib/HipaaLogger.js</title>
<path fill="none" stroke="#757575" d="M153.21,-404.06C180.11,-401.54 213,-398.45 241.11,-395.82"/>
<polygon fill="#757575" stroke="#757575" points="241.29,-399.31 250.92,-394.9 240.64,-392.34 241.29,-399.31"/>
</g>
<!-- devices/methods.js -->
<g id="node28" class="node">
<title>devices/methods.js</title>
<path fill="none" stroke="#c6c5fe" d="M552.46,-172C552.46,-172 465.04,-172 465.04,-172 461.71,-172 458.38,-168.67 458.38,-165.33 458.38,-165.33 458.38,-158.67 458.38,-158.67 458.38,-155.33 461.71,-152 465.04,-152 465.04,-152 552.46,-152 552.46,-152 555.79,-152 559.12,-155.33 559.12,-158.67 559.12,-158.67 559.12,-165.33 559.12,-165.33 559.12,-168.67 555.79,-172 552.46,-172"/>
<text xml:space="preserve" text-anchor="middle" x="508.75" y="-158.5" font-family="Arial" font-size="10.00" fill="#c6c5fe">devices/methods.js</text>
</g>
<!-- devices/methods.js&#45;&gt;../lib/schemas/SimpleSchemas/Devices.js -->
<g id="edge19" class="edge">
<title>devices/methods.js&#45;&gt;../lib/schemas/SimpleSchemas/Devices.js</title>
<path fill="none" stroke="#757575" d="M559.36,-162C588.5,-162 626.57,-162 662.51,-162"/>
<polygon fill="#757575" stroke="#757575" points="662.07,-165.5 672.07,-162 662.07,-158.5 662.07,-165.5"/>
</g>
<!-- diagnosticReports/methods.js -->
<g id="node29" class="node">
<title>diagnosticReports/methods.js</title>
<path fill="none" stroke="#cfffac" d="M165.71,-799C165.71,-799 33.29,-799 33.29,-799 29.96,-799 26.62,-795.67 26.62,-792.33 26.62,-792.33 26.62,-785.67 26.62,-785.67 26.62,-782.33 29.96,-779 33.29,-779 33.29,-779 165.71,-779 165.71,-779 169.04,-779 172.38,-782.33 172.38,-785.67 172.38,-785.67 172.38,-792.33 172.38,-792.33 172.38,-795.67 169.04,-799 165.71,-799"/>
<text xml:space="preserve" text-anchor="middle" x="99.5" y="-785.5" font-family="Arial" font-size="10.00" fill="#cfffac">diagnosticReports/methods.js</text>
</g>
<!-- dicom/server/methods.js -->
<g id="node30" class="node">
<title>dicom/server/methods.js</title>
<path fill="none" stroke="#cfffac" d="M154.46,-837C154.46,-837 44.54,-837 44.54,-837 41.21,-837 37.88,-833.67 37.88,-830.33 37.88,-830.33 37.88,-823.67 37.88,-823.67 37.88,-820.33 41.21,-817 44.54,-817 44.54,-817 154.46,-817 154.46,-817 157.79,-817 161.12,-820.33 161.12,-823.67 161.12,-823.67 161.12,-830.33 161.12,-830.33 161.12,-833.67 157.79,-837 154.46,-837"/>
<text xml:space="preserve" text-anchor="middle" x="99.5" y="-823.5" font-family="Arial" font-size="10.00" fill="#cfffac">dicom/server/methods.js</text>
</g>
<!-- documentReferences/methods.js -->
<g id="node31" class="node">
<title>documentReferences/methods.js</title>
<path fill="none" stroke="#c6c5fe" d="M582.08,-134C582.08,-134 435.42,-134 435.42,-134 432.08,-134 428.75,-130.67 428.75,-127.33 428.75,-127.33 428.75,-120.67 428.75,-120.67 428.75,-117.33 432.08,-114 435.42,-114 435.42,-114 582.08,-114 582.08,-114 585.42,-114 588.75,-117.33 588.75,-120.67 588.75,-120.67 588.75,-127.33 588.75,-127.33 588.75,-130.67 585.42,-134 582.08,-134"/>
<text xml:space="preserve" text-anchor="middle" x="508.75" y="-120.5" font-family="Arial" font-size="10.00" fill="#c6c5fe">documentReferences/methods.js</text>
</g>
<!-- documentReferences/methods.js&#45;&gt;../lib/schemas/SimpleSchemas/DocumentReferences.js -->
<g id="edge20" class="edge">
<title>documentReferences/methods.js&#45;&gt;../lib/schemas/SimpleSchemas/DocumentReferences.js</title>
<path fill="none" stroke="#757575" d="M589.24,-124C603.02,-124 617.71,-124 632.55,-124"/>
<polygon fill="#757575" stroke="#757575" points="632.41,-127.5 642.41,-124 632.41,-120.5 632.41,-127.5"/>
</g>
<!-- encounters/methods.js -->
<g id="node32" class="node">
<title>encounters/methods.js</title>
<path fill="none" stroke="#cfffac" d="M150.33,-875C150.33,-875 48.67,-875 48.67,-875 45.33,-875 42,-871.67 42,-868.33 42,-868.33 42,-861.67 42,-861.67 42,-858.33 45.33,-855 48.67,-855 48.67,-855 150.33,-855 150.33,-855 153.67,-855 157,-858.33 157,-861.67 157,-861.67 157,-868.33 157,-868.33 157,-871.67 153.67,-875 150.33,-875"/>
<text xml:space="preserve" text-anchor="middle" x="99.5" y="-861.5" font-family="Arial" font-size="10.00" fill="#cfffac">encounters/methods.js</text>
</g>
<!-- endpoints/methods.js -->
<g id="node33" class="node">
<title>endpoints/methods.js</title>
<path fill="none" stroke="#cfffac" d="M147.33,-913C147.33,-913 51.67,-913 51.67,-913 48.33,-913 45,-909.67 45,-906.33 45,-906.33 45,-899.67 45,-899.67 45,-896.33 48.33,-893 51.67,-893 51.67,-893 147.33,-893 147.33,-893 150.67,-893 154,-896.33 154,-899.67 154,-899.67 154,-906.33 154,-906.33 154,-909.67 150.67,-913 147.33,-913"/>
<text xml:space="preserve" text-anchor="middle" x="99.5" y="-899.5" font-family="Arial" font-size="10.00" fill="#cfffac">endpoints/methods.js</text>
</g>
<!-- familyMemberHistories/methods.js -->
<g id="node34" class="node">
<title>familyMemberHistories/methods.js</title>
<path fill="none" stroke="#cfffac" d="M176.58,-951C176.58,-951 22.42,-951 22.42,-951 19.08,-951 15.75,-947.67 15.75,-944.33 15.75,-944.33 15.75,-937.67 15.75,-937.67 15.75,-934.33 19.08,-931 22.42,-931 22.42,-931 176.58,-931 176.58,-931 179.92,-931 183.25,-934.33 183.25,-937.67 183.25,-937.67 183.25,-944.33 183.25,-944.33 183.25,-947.67 179.92,-951 176.58,-951"/>
<text xml:space="preserve" text-anchor="middle" x="99.5" y="-937.5" font-family="Arial" font-size="10.00" fill="#cfffac">familyMemberHistories/methods.js</text>
</g>
<!-- imagingStudies/methods.js -->
<g id="node35" class="node">
<title>imagingStudies/methods.js</title>
<path fill="none" stroke="#cfffac" d="M159.71,-989C159.71,-989 39.29,-989 39.29,-989 35.96,-989 32.62,-985.67 32.62,-982.33 32.62,-982.33 32.62,-975.67 32.62,-975.67 32.62,-972.33 35.96,-969 39.29,-969 39.29,-969 159.71,-969 159.71,-969 163.04,-969 166.38,-972.33 166.38,-975.67 166.38,-975.67 166.38,-982.33 166.38,-982.33 166.38,-985.67 163.04,-989 159.71,-989"/>
<text xml:space="preserve" text-anchor="middle" x="99.5" y="-975.5" font-family="Arial" font-size="10.00" fill="#cfffac">imagingStudies/methods.js</text>
</g>
<!-- lists/methods.js -->
<g id="node36" class="node">
<title>lists/methods.js</title>
<path fill="none" stroke="#cfffac" d="M135.33,-1027C135.33,-1027 63.67,-1027 63.67,-1027 60.33,-1027 57,-1023.67 57,-1020.33 57,-1020.33 57,-1013.67 57,-1013.67 57,-1010.33 60.33,-1007 63.67,-1007 63.67,-1007 135.33,-1007 135.33,-1007 138.67,-1007 142,-1010.33 142,-1013.67 142,-1013.67 142,-1020.33 142,-1020.33 142,-1023.67 138.67,-1027 135.33,-1027"/>
<text xml:space="preserve" text-anchor="middle" x="99.5" y="-1013.5" font-family="Arial" font-size="10.00" fill="#cfffac">lists/methods.js</text>
</g>
<!-- locations/methods.js -->
<g id="node37" class="node">
<title>locations/methods.js</title>
<path fill="none" stroke="#cfffac" d="M145.83,-1065C145.83,-1065 53.17,-1065 53.17,-1065 49.83,-1065 46.5,-1061.67 46.5,-1058.33 46.5,-1058.33 46.5,-1051.67 46.5,-1051.67 46.5,-1048.33 49.83,-1045 53.17,-1045 53.17,-1045 145.83,-1045 145.83,-1045 149.17,-1045 152.5,-1048.33 152.5,-1051.67 152.5,-1051.67 152.5,-1058.33 152.5,-1058.33 152.5,-1061.67 149.17,-1065 145.83,-1065"/>
<text xml:space="preserve" text-anchor="middle" x="99.5" y="-1051.5" font-family="Arial" font-size="10.00" fill="#cfffac">locations/methods.js</text>
</g>
<!-- measureReports/methods.js -->
<g id="node38" class="node">
<title>measureReports/methods.js</title>
<path fill="none" stroke="#cfffac" d="M162.33,-1103C162.33,-1103 36.67,-1103 36.67,-1103 33.33,-1103 30,-1099.67 30,-1096.33 30,-1096.33 30,-1089.67 30,-1089.67 30,-1086.33 33.33,-1083 36.67,-1083 36.67,-1083 162.33,-1083 162.33,-1083 165.67,-1083 169,-1086.33 169,-1089.67 169,-1089.67 169,-1096.33 169,-1096.33 169,-1099.67 165.67,-1103 162.33,-1103"/>
<text xml:space="preserve" text-anchor="middle" x="99.5" y="-1089.5" font-family="Arial" font-size="10.00" fill="#cfffac">measureReports/methods.js</text>
</g>
<!-- measures/methods.js -->
<g id="node39" class="node">
<title>measures/methods.js</title>
<path fill="none" stroke="#cfffac" d="M147.71,-1141C147.71,-1141 51.29,-1141 51.29,-1141 47.96,-1141 44.62,-1137.67 44.62,-1134.33 44.62,-1134.33 44.62,-1127.67 44.62,-1127.67 44.62,-1124.33 47.96,-1121 51.29,-1121 51.29,-1121 147.71,-1121 147.71,-1121 151.04,-1121 154.38,-1124.33 154.38,-1127.67 154.38,-1127.67 154.38,-1134.33 154.38,-1134.33 154.38,-1137.67 151.04,-1141 147.71,-1141"/>
<text xml:space="preserve" text-anchor="middle" x="99.5" y="-1127.5" font-family="Arial" font-size="10.00" fill="#cfffac">measures/methods.js</text>
</g>
<!-- medias/methods.js -->
<g id="node40" class="node">
<title>medias/methods.js</title>
<path fill="none" stroke="#cfffac" d="M142.08,-1179C142.08,-1179 56.92,-1179 56.92,-1179 53.58,-1179 50.25,-1175.67 50.25,-1172.33 50.25,-1172.33 50.25,-1165.67 50.25,-1165.67 50.25,-1162.33 53.58,-1159 56.92,-1159 56.92,-1159 142.08,-1159 142.08,-1159 145.42,-1159 148.75,-1162.33 148.75,-1165.67 148.75,-1165.67 148.75,-1172.33 148.75,-1172.33 148.75,-1175.67 145.42,-1179 142.08,-1179"/>
<text xml:space="preserve" text-anchor="middle" x="99.5" y="-1165.5" font-family="Arial" font-size="10.00" fill="#cfffac">medias/methods.js</text>
</g>
<!-- medicationAdministrations/methods.js -->
<g id="node41" class="node">
<title>medicationAdministrations/methods.js</title>
<path fill="none" stroke="#cfffac" d="M183.71,-1217C183.71,-1217 15.29,-1217 15.29,-1217 11.96,-1217 8.62,-1213.67 8.62,-1210.33 8.62,-1210.33 8.62,-1203.67 8.62,-1203.67 8.62,-1200.33 11.96,-1197 15.29,-1197 15.29,-1197 183.71,-1197 183.71,-1197 187.04,-1197 190.38,-1200.33 190.38,-1203.67 190.38,-1203.67 190.38,-1210.33 190.38,-1210.33 190.38,-1213.67 187.04,-1217 183.71,-1217"/>
<text xml:space="preserve" text-anchor="middle" x="99.5" y="-1203.5" font-family="Arial" font-size="10.00" fill="#cfffac">medicationAdministrations/methods.js</text>
</g>
<!-- medicationRequests/methods.js -->
<g id="node42" class="node">
<title>medicationRequests/methods.js</title>
<path fill="none" stroke="#cfffac" d="M170.96,-1255C170.96,-1255 28.04,-1255 28.04,-1255 24.71,-1255 21.38,-1251.67 21.38,-1248.33 21.38,-1248.33 21.38,-1241.67 21.38,-1241.67 21.38,-1238.33 24.71,-1235 28.04,-1235 28.04,-1235 170.96,-1235 170.96,-1235 174.29,-1235 177.62,-1238.33 177.62,-1241.67 177.62,-1241.67 177.62,-1248.33 177.62,-1248.33 177.62,-1251.67 174.29,-1255 170.96,-1255"/>
<text xml:space="preserve" text-anchor="middle" x="99.5" y="-1241.5" font-family="Arial" font-size="10.00" fill="#cfffac">medicationRequests/methods.js</text>
</g>
<!-- medications/methods.js -->
<g id="node43" class="node">
<title>medications/methods.js</title>
<path fill="none" stroke="#cfffac" d="M152.58,-1293C152.58,-1293 46.42,-1293 46.42,-1293 43.08,-1293 39.75,-1289.67 39.75,-1286.33 39.75,-1286.33 39.75,-1279.67 39.75,-1279.67 39.75,-1276.33 43.08,-1273 46.42,-1273 46.42,-1273 152.58,-1273 152.58,-1273 155.92,-1273 159.25,-1276.33 159.25,-1279.67 159.25,-1279.67 159.25,-1286.33 159.25,-1286.33 159.25,-1289.67 155.92,-1293 152.58,-1293"/>
<text xml:space="preserve" text-anchor="middle" x="99.5" y="-1279.5" font-family="Arial" font-size="10.00" fill="#cfffac">medications/methods.js</text>
</g>
<!-- messageHeaders/methods.js -->
<g id="node44" class="node">
<title>messageHeaders/methods.js</title>
<path fill="none" stroke="#cfffac" d="M164.58,-1331C164.58,-1331 34.42,-1331 34.42,-1331 31.08,-1331 27.75,-1327.67 27.75,-1324.33 27.75,-1324.33 27.75,-1317.67 27.75,-1317.67 27.75,-1314.33 31.08,-1311 34.42,-1311 34.42,-1311 164.58,-1311 164.58,-1311 167.92,-1311 171.25,-1314.33 171.25,-1317.67 171.25,-1317.67 171.25,-1324.33 171.25,-1324.33 171.25,-1327.67 167.92,-1331 164.58,-1331"/>
<text xml:space="preserve" text-anchor="middle" x="99.5" y="-1317.5" font-family="Arial" font-size="10.00" fill="#cfffac">messageHeaders/methods.js</text>
</g>
<!-- nutritionIntakes/methods.js -->
<g id="node45" class="node">
<title>nutritionIntakes/methods.js</title>
<path fill="none" stroke="#cfffac" d="M159.71,-1369C159.71,-1369 39.29,-1369 39.29,-1369 35.96,-1369 32.62,-1365.67 32.62,-1362.33 32.62,-1362.33 32.62,-1355.67 32.62,-1355.67 32.62,-1352.33 35.96,-1349 39.29,-1349 39.29,-1349 159.71,-1349 159.71,-1349 163.04,-1349 166.38,-1352.33 166.38,-1355.67 166.38,-1355.67 166.38,-1362.33 166.38,-1362.33 166.38,-1365.67 163.04,-1369 159.71,-1369"/>
<text xml:space="preserve" text-anchor="middle" x="99.5" y="-1355.5" font-family="Arial" font-size="10.00" fill="#cfffac">nutritionIntakes/methods.js</text>
</g>
<!-- nutritionOrders/methods.js -->
<g id="node46" class="node">
<title>nutritionOrders/methods.js</title>
<path fill="none" stroke="#cfffac" d="M158.21,-1407C158.21,-1407 40.79,-1407 40.79,-1407 37.46,-1407 34.12,-1403.67 34.12,-1400.33 34.12,-1400.33 34.12,-1393.67 34.12,-1393.67 34.12,-1390.33 37.46,-1387 40.79,-1387 40.79,-1387 158.21,-1387 158.21,-1387 161.54,-1387 164.88,-1390.33 164.88,-1393.67 164.88,-1393.67 164.88,-1400.33 164.88,-1400.33 164.88,-1403.67 161.54,-1407 158.21,-1407"/>
<text xml:space="preserve" text-anchor="middle" x="99.5" y="-1393.5" font-family="Arial" font-size="10.00" fill="#cfffac">nutritionOrders/methods.js</text>
</g>
<!-- nutritionProducts/methods.js -->
<g id="node47" class="node">
<title>nutritionProducts/methods.js</title>
<path fill="none" stroke="#cfffac" d="M163.08,-1445C163.08,-1445 35.92,-1445 35.92,-1445 32.58,-1445 29.25,-1441.67 29.25,-1438.33 29.25,-1438.33 29.25,-1431.67 29.25,-1431.67 29.25,-1428.33 32.58,-1425 35.92,-1425 35.92,-1425 163.08,-1425 163.08,-1425 166.42,-1425 169.75,-1428.33 169.75,-1431.67 169.75,-1431.67 169.75,-1438.33 169.75,-1438.33 169.75,-1441.67 166.42,-1445 163.08,-1445"/>
<text xml:space="preserve" text-anchor="middle" x="99.5" y="-1431.5" font-family="Arial" font-size="10.00" fill="#cfffac">nutritionProducts/methods.js</text>
</g>
<!-- observations/methods.js -->
<g id="node48" class="node">
<title>observations/methods.js</title>
<path fill="none" stroke="#cfffac" d="M154.08,-1483C154.08,-1483 44.92,-1483 44.92,-1483 41.58,-1483 38.25,-1479.67 38.25,-1476.33 38.25,-1476.33 38.25,-1469.67 38.25,-1469.67 38.25,-1466.33 41.58,-1463 44.92,-1463 44.92,-1463 154.08,-1463 154.08,-1463 157.42,-1463 160.75,-1466.33 160.75,-1469.67 160.75,-1469.67 160.75,-1476.33 160.75,-1476.33 160.75,-1479.67 157.42,-1483 154.08,-1483"/>
<text xml:space="preserve" text-anchor="middle" x="99.5" y="-1469.5" font-family="Arial" font-size="10.00" fill="#cfffac">observations/methods.js</text>
</g>
<!-- organizations/methods.js -->
<g id="node49" class="node">
<title>organizations/methods.js</title>
<path fill="none" stroke="#cfffac" d="M155.21,-1521C155.21,-1521 43.79,-1521 43.79,-1521 40.46,-1521 37.13,-1517.67 37.13,-1514.33 37.13,-1514.33 37.13,-1507.67 37.13,-1507.67 37.13,-1504.33 40.46,-1501 43.79,-1501 43.79,-1501 155.21,-1501 155.21,-1501 158.54,-1501 161.88,-1504.33 161.88,-1507.67 161.88,-1507.67 161.88,-1514.33 161.88,-1514.33 161.88,-1517.67 158.54,-1521 155.21,-1521"/>
<text xml:space="preserve" text-anchor="middle" x="99.5" y="-1507.5" font-family="Arial" font-size="10.00" fill="#cfffac">organizations/methods.js</text>
</g>
<!-- patients/methods.js -->
<g id="node50" class="node">
<title>patients/methods.js</title>
<path fill="none" stroke="#c6c5fe" d="M552.83,-96C552.83,-96 464.67,-96 464.67,-96 461.33,-96 458,-92.67 458,-89.33 458,-89.33 458,-82.67 458,-82.67 458,-79.33 461.33,-76 464.67,-76 464.67,-76 552.83,-76 552.83,-76 556.17,-76 559.5,-79.33 559.5,-82.67 559.5,-82.67 559.5,-89.33 559.5,-89.33 559.5,-92.67 556.17,-96 552.83,-96"/>
<text xml:space="preserve" text-anchor="middle" x="508.75" y="-82.5" font-family="Arial" font-size="10.00" fill="#c6c5fe">patients/methods.js</text>
</g>
<!-- patients/methods.js&#45;&gt;../lib/schemas/SimpleSchemas/Patients.js -->
<g id="edge21" class="edge">
<title>patients/methods.js&#45;&gt;../lib/schemas/SimpleSchemas/Patients.js</title>
<path fill="none" stroke="#757575" d="M559.98,-86C588.91,-86 626.48,-86 662.02,-86"/>
<polygon fill="#757575" stroke="#757575" points="661.97,-89.5 671.97,-86 661.97,-82.5 661.97,-89.5"/>
</g>
<!-- planDefinitions/methods.js -->
<g id="node51" class="node">
<title>planDefinitions/methods.js</title>
<path fill="none" stroke="#cfffac" d="M158.58,-1559C158.58,-1559 40.42,-1559 40.42,-1559 37.08,-1559 33.75,-1555.67 33.75,-1552.33 33.75,-1552.33 33.75,-1545.67 33.75,-1545.67 33.75,-1542.33 37.08,-1539 40.42,-1539 40.42,-1539 158.58,-1539 158.58,-1539 161.92,-1539 165.25,-1542.33 165.25,-1545.67 165.25,-1545.67 165.25,-1552.33 165.25,-1552.33 165.25,-1555.67 161.92,-1559 158.58,-1559"/>
<text xml:space="preserve" text-anchor="middle" x="99.5" y="-1545.5" font-family="Arial" font-size="10.00" fill="#cfffac">planDefinitions/methods.js</text>
</g>
<!-- practitionerRoles/methods.js -->
<g id="node52" class="node">
<title>practitionerRoles/methods.js</title>
<path fill="none" stroke="#c6c5fe" d="M572.33,-58C572.33,-58 445.17,-58 445.17,-58 441.83,-58 438.5,-54.67 438.5,-51.33 438.5,-51.33 438.5,-44.67 438.5,-44.67 438.5,-41.33 441.83,-38 445.17,-38 445.17,-38 572.33,-38 572.33,-38 575.67,-38 579,-41.33 579,-44.67 579,-44.67 579,-51.33 579,-51.33 579,-54.67 575.67,-58 572.33,-58"/>
<text xml:space="preserve" text-anchor="middle" x="508.75" y="-44.5" font-family="Arial" font-size="10.00" fill="#c6c5fe">practitionerRoles/methods.js</text>
</g>
<!-- practitionerRoles/methods.js&#45;&gt;../lib/schemas/SimpleSchemas/PractitionerRoles.js -->
<g id="edge22" class="edge">
<title>practitionerRoles/methods.js&#45;&gt;../lib/schemas/SimpleSchemas/PractitionerRoles.js</title>
<path fill="none" stroke="#757575" d="M579.39,-48C598.89,-48 620.74,-48 642.55,-48"/>
<polygon fill="#757575" stroke="#757575" points="642.43,-51.5 652.43,-48 642.43,-44.5 642.43,-51.5"/>
</g>
<!-- practitioners/methods.js -->
<g id="node53" class="node">
<title>practitioners/methods.js</title>
<path fill="none" stroke="#c6c5fe" d="M562.21,-20C562.21,-20 455.29,-20 455.29,-20 451.96,-20 448.62,-16.67 448.62,-13.33 448.62,-13.33 448.62,-6.67 448.62,-6.67 448.62,-3.33 451.96,0 455.29,0 455.29,0 562.21,0 562.21,0 565.54,0 568.88,-3.33 568.88,-6.67 568.88,-6.67 568.88,-13.33 568.88,-13.33 568.88,-16.67 565.54,-20 562.21,-20"/>
<text xml:space="preserve" text-anchor="middle" x="508.75" y="-6.5" font-family="Arial" font-size="10.00" fill="#c6c5fe">practitioners/methods.js</text>
</g>
<!-- practitioners/methods.js&#45;&gt;../lib/schemas/SimpleSchemas/Practitioners.js -->
<g id="edge23" class="edge">
<title>practitioners/methods.js&#45;&gt;../lib/schemas/SimpleSchemas/Practitioners.js</title>
<path fill="none" stroke="#757575" d="M569.27,-10C594.02,-10 623.69,-10 652.64,-10"/>
<polygon fill="#757575" stroke="#757575" points="652.61,-13.5 662.61,-10 652.61,-6.5 652.61,-13.5"/>
</g>
<!-- procedures/methods.js -->
<g id="node54" class="node">
<title>procedures/methods.js</title>
<path fill="none" stroke="#cfffac" d="M150.33,-1597C150.33,-1597 48.67,-1597 48.67,-1597 45.33,-1597 42,-1593.67 42,-1590.33 42,-1590.33 42,-1583.67 42,-1583.67 42,-1580.33 45.33,-1577 48.67,-1577 48.67,-1577 150.33,-1577 150.33,-1577 153.67,-1577 157,-1580.33 157,-1583.67 157,-1583.67 157,-1590.33 157,-1590.33 157,-1593.67 153.67,-1597 150.33,-1597"/>
<text xml:space="preserve" text-anchor="middle" x="99.5" y="-1583.5" font-family="Arial" font-size="10.00" fill="#cfffac">procedures/methods.js</text>
</g>
<!-- questionnaireResponses/methods.js -->
<g id="node55" class="node">
<title>questionnaireResponses/methods.js</title>
<path fill="none" stroke="#cfffac" d="M179.96,-1635C179.96,-1635 19.04,-1635 19.04,-1635 15.71,-1635 12.38,-1631.67 12.38,-1628.33 12.38,-1628.33 12.38,-1621.67 12.38,-1621.67 12.38,-1618.33 15.71,-1615 19.04,-1615 19.04,-1615 179.96,-1615 179.96,-1615 183.29,-1615 186.62,-1618.33 186.62,-1621.67 186.62,-1621.67 186.62,-1628.33 186.62,-1628.33 186.62,-1631.67 183.29,-1635 179.96,-1635"/>
<text xml:space="preserve" text-anchor="middle" x="99.5" y="-1621.5" font-family="Arial" font-size="10.00" fill="#cfffac">questionnaireResponses/methods.js</text>
</g>
<!-- questionnaireResponses/methods.tests.js -->
<g id="node56" class="node">
<title>questionnaireResponses/methods.tests.js</title>
<path fill="none" stroke="#cfffac" d="M192.33,-1673C192.33,-1673 6.67,-1673 6.67,-1673 3.33,-1673 0,-1669.67 0,-1666.33 0,-1666.33 0,-1659.67 0,-1659.67 0,-1656.33 3.33,-1653 6.67,-1653 6.67,-1653 192.33,-1653 192.33,-1653 195.67,-1653 199,-1656.33 199,-1659.67 199,-1659.67 199,-1666.33 199,-1666.33 199,-1669.67 195.67,-1673 192.33,-1673"/>
<text xml:space="preserve" text-anchor="middle" x="99.5" y="-1659.5" font-family="Arial" font-size="10.00" fill="#cfffac">questionnaireResponses/methods.tests.js</text>
</g>
<!-- questionnaires/methods.js -->
<g id="node57" class="node">
<title>questionnaires/methods.js</title>
<path fill="none" stroke="#cfffac" d="M157.83,-1711C157.83,-1711 41.17,-1711 41.17,-1711 37.83,-1711 34.5,-1707.67 34.5,-1704.33 34.5,-1704.33 34.5,-1697.67 34.5,-1697.67 34.5,-1694.33 37.83,-1691 41.17,-1691 41.17,-1691 157.83,-1691 157.83,-1691 161.17,-1691 164.5,-1694.33 164.5,-1697.67 164.5,-1697.67 164.5,-1704.33 164.5,-1704.33 164.5,-1707.67 161.17,-1711 157.83,-1711"/>
<text xml:space="preserve" text-anchor="middle" x="99.5" y="-1697.5" font-family="Arial" font-size="10.00" fill="#cfffac">questionnaires/methods.js</text>
</g>
<!-- questionnaires/methods.tests.js -->
<g id="node58" class="node">
<title>questionnaires/methods.tests.js</title>
<path fill="none" stroke="#cfffac" d="M170.21,-1749C170.21,-1749 28.79,-1749 28.79,-1749 25.46,-1749 22.12,-1745.67 22.12,-1742.33 22.12,-1742.33 22.12,-1735.67 22.12,-1735.67 22.12,-1732.33 25.46,-1729 28.79,-1729 28.79,-1729 170.21,-1729 170.21,-1729 173.54,-1729 176.88,-1732.33 176.88,-1735.67 176.88,-1735.67 176.88,-1742.33 176.88,-1742.33 176.88,-1745.67 173.54,-1749 170.21,-1749"/>
<text xml:space="preserve" text-anchor="middle" x="99.5" y="-1735.5" font-family="Arial" font-size="10.00" fill="#cfffac">questionnaires/methods.tests.js</text>
</g>
<!-- research&#45;studies/methods.js -->
<g id="node59" class="node">
<title>research&#45;studies/methods.js</title>
<path fill="none" stroke="#cfffac" d="M162.33,-1787C162.33,-1787 36.67,-1787 36.67,-1787 33.33,-1787 30,-1783.67 30,-1780.33 30,-1780.33 30,-1773.67 30,-1773.67 30,-1770.33 33.33,-1767 36.67,-1767 36.67,-1767 162.33,-1767 162.33,-1767 165.67,-1767 169,-1770.33 169,-1773.67 169,-1773.67 169,-1780.33 169,-1780.33 169,-1783.67 165.67,-1787 162.33,-1787"/>
<text xml:space="preserve" text-anchor="middle" x="99.5" y="-1773.5" font-family="Arial" font-size="10.00" fill="#cfffac">research&#45;studies/methods.js</text>
</g>
<!-- researchSubjects/methods.js -->
<g id="node60" class="node">
<title>researchSubjects/methods.js</title>
<path fill="none" stroke="#cfffac" d="M164.21,-1825C164.21,-1825 34.79,-1825 34.79,-1825 31.46,-1825 28.12,-1821.67 28.12,-1818.33 28.12,-1818.33 28.12,-1811.67 28.12,-1811.67 28.12,-1808.33 31.46,-1805 34.79,-1805 34.79,-1805 164.21,-1805 164.21,-1805 167.54,-1805 170.88,-1808.33 170.88,-1811.67 170.88,-1811.67 170.88,-1818.33 170.88,-1818.33 170.88,-1821.67 167.54,-1825 164.21,-1825"/>
<text xml:space="preserve" text-anchor="middle" x="99.5" y="-1811.5" font-family="Arial" font-size="10.00" fill="#cfffac">researchSubjects/methods.js</text>
</g>
<!-- rfc7523/methods.js -->
<g id="node61" class="node">
<title>rfc7523/methods.js</title>
<path fill="none" stroke="#cfffac" d="M142.46,-1863C142.46,-1863 56.54,-1863 56.54,-1863 53.21,-1863 49.88,-1859.67 49.88,-1856.33 49.88,-1856.33 49.88,-1849.67 49.88,-1849.67 49.88,-1846.33 53.21,-1843 56.54,-1843 56.54,-1843 142.46,-1843 142.46,-1843 145.79,-1843 149.12,-1846.33 149.12,-1849.67 149.12,-1849.67 149.12,-1856.33 149.12,-1856.33 149.12,-1859.67 145.79,-1863 142.46,-1863"/>
<text xml:space="preserve" text-anchor="middle" x="99.5" y="-1849.5" font-family="Arial" font-size="10.00" fill="#cfffac">rfc7523/methods.js</text>
</g>
<!-- riskAssessments/methods.js -->
<g id="node62" class="node">
<title>riskAssessments/methods.js</title>
<path fill="none" stroke="#cfffac" d="M164.21,-1901C164.21,-1901 34.79,-1901 34.79,-1901 31.46,-1901 28.12,-1897.67 28.12,-1894.33 28.12,-1894.33 28.12,-1887.67 28.12,-1887.67 28.12,-1884.33 31.46,-1881 34.79,-1881 34.79,-1881 164.21,-1881 164.21,-1881 167.54,-1881 170.88,-1884.33 170.88,-1887.67 170.88,-1887.67 170.88,-1894.33 170.88,-1894.33 170.88,-1897.67 167.54,-1901 164.21,-1901"/>
<text xml:space="preserve" text-anchor="middle" x="99.5" y="-1887.5" font-family="Arial" font-size="10.00" fill="#cfffac">riskAssessments/methods.js</text>
</g>
<!-- schedules/methods.js -->
<g id="node63" class="node">
<title>schedules/methods.js</title>
<path fill="none" stroke="#cfffac" d="M148.46,-1939C148.46,-1939 50.54,-1939 50.54,-1939 47.21,-1939 43.88,-1935.67 43.88,-1932.33 43.88,-1932.33 43.88,-1925.67 43.88,-1925.67 43.88,-1922.33 47.21,-1919 50.54,-1919 50.54,-1919 148.46,-1919 148.46,-1919 151.79,-1919 155.12,-1922.33 155.12,-1925.67 155.12,-1925.67 155.12,-1932.33 155.12,-1932.33 155.12,-1935.67 151.79,-1939 148.46,-1939"/>
<text xml:space="preserve" text-anchor="middle" x="99.5" y="-1925.5" font-family="Arial" font-size="10.00" fill="#cfffac">schedules/methods.js</text>
</g>
<!-- serviceRequests/methods.js -->
<g id="node64" class="node">
<title>serviceRequests/methods.js</title>
<path fill="none" stroke="#cfffac" d="M163.08,-1977C163.08,-1977 35.92,-1977 35.92,-1977 32.58,-1977 29.25,-1973.67 29.25,-1970.33 29.25,-1970.33 29.25,-1963.67 29.25,-1963.67 29.25,-1960.33 32.58,-1957 35.92,-1957 35.92,-1957 163.08,-1957 163.08,-1957 166.42,-1957 169.75,-1960.33 169.75,-1963.67 169.75,-1963.67 169.75,-1970.33 169.75,-1970.33 169.75,-1973.67 166.42,-1977 163.08,-1977"/>
<text xml:space="preserve" text-anchor="middle" x="99.5" y="-1963.5" font-family="Arial" font-size="10.00" fill="#cfffac">serviceRequests/methods.js</text>
</g>
<!-- substances/methods.js -->
<g id="node65" class="node">
<title>substances/methods.js</title>
<path fill="none" stroke="#cfffac" d="M151.46,-2015C151.46,-2015 47.54,-2015 47.54,-2015 44.21,-2015 40.88,-2011.67 40.88,-2008.33 40.88,-2008.33 40.88,-2001.67 40.88,-2001.67 40.88,-1998.33 44.21,-1995 47.54,-1995 47.54,-1995 151.46,-1995 151.46,-1995 154.79,-1995 158.12,-1998.33 158.12,-2001.67 158.12,-2001.67 158.12,-2008.33 158.12,-2008.33 158.12,-2011.67 154.79,-2015 151.46,-2015"/>
<text xml:space="preserve" text-anchor="middle" x="99.5" y="-2001.5" font-family="Arial" font-size="10.00" fill="#cfffac">substances/methods.js</text>
</g>
<!-- supplyRequests/methods.js -->
<g id="node66" class="node">
<title>supplyRequests/methods.js</title>
<path fill="none" stroke="#cfffac" d="M161.58,-2053C161.58,-2053 37.42,-2053 37.42,-2053 34.08,-2053 30.75,-2049.67 30.75,-2046.33 30.75,-2046.33 30.75,-2039.67 30.75,-2039.67 30.75,-2036.33 34.08,-2033 37.42,-2033 37.42,-2033 161.58,-2033 161.58,-2033 164.92,-2033 168.25,-2036.33 168.25,-2039.67 168.25,-2039.67 168.25,-2046.33 168.25,-2046.33 168.25,-2049.67 164.92,-2053 161.58,-2053"/>
<text xml:space="preserve" text-anchor="middle" x="99.5" y="-2039.5" font-family="Arial" font-size="10.00" fill="#cfffac">supplyRequests/methods.js</text>
</g>
</g>
</svg>
