<?xml version="1.0" encoding="UTF-8" standalone="no"?>
<!DOCTYPE svg PUBLIC "-//W3C//DTD SVG 1.1//EN"
 "http://www.w3.org/Graphics/SVG/1.1/DTD/svg11.dtd">
<!-- Generated by graphviz version 14.1.2 (20260124.0452)
 -->
<!-- Title: G Pages: 1 -->
<svg width="178pt" height="177pt"
 viewBox="0.00 0.00 178.00 177.00" xmlns="http://www.w3.org/2000/svg" xmlns:xlink="http://www.w3.org/1999/xlink">
<g id="graph0" class="graph" transform="scale(1 1) rotate(0) translate(21.6 155.6)">
<title>G</title>
<polygon fill="#111111" stroke="none" points="-21.6,21.6 -21.6,-155.6 156.85,-155.6 156.85,21.6 -21.6,21.6"/>
<!-- hooks/useTools.js -->
<g id="node1" class="node">
<title>hooks/useTools.js</title>
<path fill="none" stroke="#cfffac" d="M108.33,-20C108.33,-20 26.92,-20 26.92,-20 23.58,-20 20.25,-16.67 20.25,-13.33 20.25,-13.33 20.25,-6.67 20.25,-6.67 20.25,-3.33 23.58,0 26.92,0 26.92,0 108.33,0 108.33,0 111.67,0 115,-3.33 115,-6.67 115,-6.67 115,-13.33 115,-13.33 115,-16.67 111.67,-20 108.33,-20"/>
<text xml:space="preserve" text-anchor="middle" x="67.62" y="-6.5" font-family="Arial" font-size="10.00" fill="#cfffac">hooks/useTools.js</text>
</g>
<!-- utils/DicomFhirMapping.js -->
<g id="node2" class="node">
<title>utils/DicomFhirMapping.js</title>
<path fill="none" stroke="#cfffac" d="M125.58,-58C125.58,-58 9.67,-58 9.67,-58 6.33,-58 3,-54.67 3,-51.33 3,-51.33 3,-44.67 3,-44.67 3,-41.33 6.33,-38 9.67,-38 9.67,-38 125.58,-38 125.58,-38 128.92,-38 132.25,-41.33 132.25,-44.67 132.25,-44.67 132.25,-51.33 132.25,-51.33 132.25,-54.67 128.92,-58 125.58,-58"/>
<text xml:space="preserve" text-anchor="middle" x="67.62" y="-44.5" font-family="Arial" font-size="10.00" fill="#cfffac">utils/DicomFhirMapping.js</text>
</g>
<!-- utils/KeyImageUtils.js -->
<g id="node3" class="node">
<title>utils/KeyImageUtils.js</title>
<path fill="none" stroke="#cfffac" d="M116.96,-96C116.96,-96 18.29,-96 18.29,-96 14.96,-96 11.63,-92.67 11.63,-89.33 11.63,-89.33 11.63,-82.67 11.63,-82.67 11.63,-79.33 14.96,-76 18.29,-76 18.29,-76 116.96,-76 116.96,-76 120.29,-76 123.62,-79.33 123.62,-82.67 123.62,-82.67 123.62,-89.33 123.62,-89.33 123.62,-92.67 120.29,-96 116.96,-96"/>
<text xml:space="preserve" text-anchor="middle" x="67.62" y="-82.5" font-family="Arial" font-size="10.00" fill="#cfffac">utils/KeyImageUtils.js</text>
</g>
<!-- utils/SimpleDicomLoader.js -->
<g id="node4" class="node">
<title>utils/SimpleDicomLoader.js</title>
<path fill="none" stroke="#cfffac" d="M128.58,-134C128.58,-134 6.67,-134 6.67,-134 3.33,-134 0,-130.67 0,-127.33 0,-127.33 0,-120.67 0,-120.67 0,-117.33 3.33,-114 6.67,-114 6.67,-114 128.58,-114 128.58,-114 131.92,-114 135.25,-117.33 135.25,-120.67 135.25,-120.67 135.25,-127.33 135.25,-127.33 135.25,-130.67 131.92,-134 128.58,-134"/>
<text xml:space="preserve" text-anchor="middle" x="67.62" y="-120.5" font-family="Arial" font-size="10.00" fill="#cfffac">utils/SimpleDicomLoader.js</text>
</g>
</g>
</svg>
