<?xml version="1.0" encoding="UTF-8" standalone="no"?>
<!DOCTYPE svg PUBLIC "-//W3C//DTD SVG 1.1//EN"
 "http://www.w3.org/Graphics/SVG/1.1/DTD/svg11.dtd">
<!-- Generated by graphviz version 14.1.2 (20260124.0452)
 -->
<!-- Title: G Pages: 1 -->
<svg width="1358pt" height="614pt"
 viewBox="0.00 0.00 1358.00 614.00" xmlns="http://www.w3.org/2000/svg" xmlns:xlink="http://www.w3.org/1999/xlink">
<g id="graph0" class="graph" transform="scale(1 1) rotate(0) translate(21.6 592.6)">
<title>G</title>
<polygon fill="#111111" stroke="none" points="-21.6,21.6 -21.6,-592.6 1336.35,-592.6 1336.35,21.6 -21.6,21.6"/>
<!-- ../accounts/client/startup.js -->
<g id="node1" class="node">
<title>../accounts/client/startup.js</title>
<path fill="none" stroke="#c6c5fe" d="M821.21,-495C821.21,-495 700.04,-495 700.04,-495 696.71,-495 693.38,-491.67 693.38,-488.33 693.38,-488.33 693.38,-481.67 693.38,-481.67 693.38,-478.33 696.71,-475 700.04,-475 700.04,-475 821.21,-475 821.21,-475 824.54,-475 827.88,-478.33 827.88,-481.67 827.88,-481.67 827.88,-488.33 827.88,-488.33 827.88,-491.67 824.54,-495 821.21,-495"/>
<text xml:space="preserve" text-anchor="middle" x="760.62" y="-481.5" font-family="Arial" font-size="10.00" fill="#c6c5fe">../accounts/client/startup.js</text>
</g>
<!-- ../accounts/lib/AccountsLogger.js -->
<g id="node2" class="node">
<title>../accounts/lib/AccountsLogger.js</title>
<path fill="none" stroke="#cfffac" d="M1124.46,-495C1124.46,-495 976.29,-495 976.29,-495 972.96,-495 969.62,-491.67 969.62,-488.33 969.62,-488.33 969.62,-481.67 969.62,-481.67 969.62,-478.33 972.96,-475 976.29,-475 976.29,-475 1124.46,-475 1124.46,-475 1127.79,-475 1131.12,-478.33 1131.12,-481.67 1131.12,-481.67 1131.12,-488.33 1131.12,-488.33 1131.12,-491.67 1127.79,-495 1124.46,-495"/>
<text xml:space="preserve" text-anchor="middle" x="1050.38" y="-481.5" font-family="Arial" font-size="10.00" fill="#cfffac">../accounts/lib/AccountsLogger.js</text>
</g>
<!-- ../accounts/client/startup.js&#45;&gt;../accounts/lib/AccountsLogger.js -->
<g id="edge1" class="edge">
<title>../accounts/client/startup.js&#45;&gt;../accounts/lib/AccountsLogger.js</title>
<path fill="none" stroke="#757575" d="M828.36,-485C866.84,-485 915.77,-485 957.8,-485"/>
<polygon fill="#757575" stroke="#757575" points="957.66,-488.5 967.66,-485 957.66,-481.5 957.66,-488.5"/>
</g>
<!-- ../accounts/client/test&#45;accounts.js -->
<g id="node3" class="node">
<title>../accounts/client/test&#45;accounts.js</title>
<path fill="none" stroke="#c6c5fe" d="M835.83,-533C835.83,-533 685.42,-533 685.42,-533 682.08,-533 678.75,-529.67 678.75,-526.33 678.75,-526.33 678.75,-519.67 678.75,-519.67 678.75,-516.33 682.08,-513 685.42,-513 685.42,-513 835.83,-513 835.83,-513 839.17,-513 842.5,-516.33 842.5,-519.67 842.5,-519.67 842.5,-526.33 842.5,-526.33 842.5,-529.67 839.17,-533 835.83,-533"/>
<text xml:space="preserve" text-anchor="middle" x="760.62" y="-519.5" font-family="Arial" font-size="10.00" fill="#c6c5fe">../accounts/client/test&#45;accounts.js</text>
</g>
<!-- ../accounts/client/test&#45;accounts.js&#45;&gt;../accounts/lib/AccountsLogger.js -->
<g id="edge2" class="edge">
<title>../accounts/client/test&#45;accounts.js&#45;&gt;../accounts/lib/AccountsLogger.js</title>
<path fill="none" stroke="#757575" d="M841.02,-512.52C877.66,-507.68 921.33,-501.91 959.21,-496.91"/>
<polygon fill="#757575" stroke="#757575" points="959.29,-500.43 968.74,-495.65 958.37,-493.49 959.29,-500.43"/>
</g>
<!-- ../accounts/server/accounts&#45;server.js -->
<g id="node4" class="node">
<title>../accounts/server/accounts&#45;server.js</title>
<path fill="none" stroke="#c6c5fe" d="M842.96,-305C842.96,-305 678.29,-305 678.29,-305 674.96,-305 671.62,-301.67 671.62,-298.33 671.62,-298.33 671.62,-291.67 671.62,-291.67 671.62,-288.33 674.96,-285 678.29,-285 678.29,-285 842.96,-285 842.96,-285 846.29,-285 849.62,-288.33 849.62,-291.67 849.62,-291.67 849.62,-298.33 849.62,-298.33 849.62,-301.67 846.29,-305 842.96,-305"/>
<text xml:space="preserve" text-anchor="middle" x="760.62" y="-291.5" font-family="Arial" font-size="10.00" fill="#c6c5fe">../accounts/server/accounts&#45;server.js</text>
</g>
<!-- ../accounts/server/accounts&#45;server.js&#45;&gt;../accounts/lib/AccountsLogger.js -->
<g id="edge3" class="edge">
<title>../accounts/server/accounts&#45;server.js&#45;&gt;../accounts/lib/AccountsLogger.js</title>
<path fill="none" stroke="#757575" d="M850.12,-297.25C862.11,-300.73 873.52,-306.05 883,-314 920.8,-345.7 886.61,-381.79 919,-419 940.62,-443.83 973.82,-460.45 1001.31,-470.8"/>
<polygon fill="#757575" stroke="#757575" points="999.89,-474.01 1010.49,-474.08 1002.25,-467.42 999.89,-474.01"/>
</g>
<!-- ../accounts/server/dev&#45;autologin.js -->
<g id="node5" class="node">
<title>../accounts/server/dev&#45;autologin.js</title>
<path fill="none" stroke="#c6c5fe" d="M836.96,-267C836.96,-267 684.29,-267 684.29,-267 680.96,-267 677.62,-263.67 677.62,-260.33 677.62,-260.33 677.62,-253.67 677.62,-253.67 677.62,-250.33 680.96,-247 684.29,-247 684.29,-247 836.96,-247 836.96,-247 840.29,-247 843.62,-250.33 843.62,-253.67 843.62,-253.67 843.62,-260.33 843.62,-260.33 843.62,-263.67 840.29,-267 836.96,-267"/>
<text xml:space="preserve" text-anchor="middle" x="760.62" y="-253.5" font-family="Arial" font-size="10.00" fill="#c6c5fe">../accounts/server/dev&#45;autologin.js</text>
</g>
<!-- ../lib/schemas/SimpleSchemas/Patients.js -->
<g id="node6" class="node">
<title>../lib/schemas/SimpleSchemas/Patients.js</title>
<path fill="none" stroke="#c6c5fe" d="M1144.33,-324C1144.33,-324 956.42,-324 956.42,-324 953.08,-324 949.75,-320.67 949.75,-317.33 949.75,-317.33 949.75,-310.67 949.75,-310.67 949.75,-307.33 953.08,-304 956.42,-304 956.42,-304 1144.33,-304 1144.33,-304 1147.67,-304 1151,-307.33 1151,-310.67 1151,-310.67 1151,-317.33 1151,-317.33 1151,-320.67 1147.67,-324 1144.33,-324"/>
<text xml:space="preserve" text-anchor="middle" x="1050.38" y="-310.5" font-family="Arial" font-size="10.00" fill="#c6c5fe">../lib/schemas/SimpleSchemas/Patients.js</text>
</g>
<!-- ../accounts/server/dev&#45;autologin.js&#45;&gt;../lib/schemas/SimpleSchemas/Patients.js -->
<g id="edge4" class="edge">
<title>../accounts/server/dev&#45;autologin.js&#45;&gt;../lib/schemas/SimpleSchemas/Patients.js</title>
<path fill="none" stroke="#757575" d="M844.12,-266.14C857.3,-268.68 870.65,-271.9 883,-276 900.17,-281.7 901.8,-289.39 919,-295 926.09,-297.31 933.48,-299.34 940.99,-301.12"/>
<polygon fill="#757575" stroke="#757575" points="940.06,-304.5 950.58,-303.24 941.56,-297.67 940.06,-304.5"/>
</g>
<!-- ../lib/BaseModel.js -->
<g id="node24" class="node">
<title>../lib/BaseModel.js</title>
<path fill="none" stroke="#cfffac" d="M1308.08,-172C1308.08,-172 1224.42,-172 1224.42,-172 1221.08,-172 1217.75,-168.67 1217.75,-165.33 1217.75,-165.33 1217.75,-158.67 1217.75,-158.67 1217.75,-155.33 1221.08,-152 1224.42,-152 1224.42,-152 1308.08,-152 1308.08,-152 1311.42,-152 1314.75,-155.33 1314.75,-158.67 1314.75,-158.67 1314.75,-165.33 1314.75,-165.33 1314.75,-168.67 1311.42,-172 1308.08,-172"/>
<text xml:space="preserve" text-anchor="middle" x="1266.25" y="-158.5" font-family="Arial" font-size="10.00" fill="#cfffac">../lib/BaseModel.js</text>
</g>
<!-- ../lib/schemas/SimpleSchemas/Patients.js&#45;&gt;../lib/BaseModel.js -->
<g id="edge29" class="edge">
<title>../lib/schemas/SimpleSchemas/Patients.js&#45;&gt;../lib/BaseModel.js</title>
<path fill="none" stroke="#757575" d="M1151.5,-308.62C1162.22,-305.41 1172.55,-300.99 1181.75,-295 1222.89,-268.2 1247.47,-213.28 1258.43,-183.08"/>
<polygon fill="#757575" stroke="#757575" points="1261.64,-184.5 1261.59,-173.91 1255.02,-182.22 1261.64,-184.5"/>
</g>
<!-- ../accounts/server/email&#45;config.js -->
<g id="node7" class="node">
<title>../accounts/server/email&#45;config.js</title>
<path fill="none" stroke="#cfffac" d="M834.33,-229C834.33,-229 686.92,-229 686.92,-229 683.58,-229 680.25,-225.67 680.25,-222.33 680.25,-222.33 680.25,-215.67 680.25,-215.67 680.25,-212.33 683.58,-209 686.92,-209 686.92,-209 834.33,-209 834.33,-209 837.67,-209 841,-212.33 841,-215.67 841,-215.67 841,-222.33 841,-222.33 841,-225.67 837.67,-229 834.33,-229"/>
<text xml:space="preserve" text-anchor="middle" x="760.62" y="-215.5" font-family="Arial" font-size="10.00" fill="#cfffac">../accounts/server/email&#45;config.js</text>
</g>
<!-- ../accounts/server/methods.js -->
<g id="node8" class="node">
<title>../accounts/server/methods.js</title>
<path fill="none" stroke="#c6c5fe" d="M826.83,-191C826.83,-191 694.42,-191 694.42,-191 691.08,-191 687.75,-187.67 687.75,-184.33 687.75,-184.33 687.75,-177.67 687.75,-177.67 687.75,-174.33 691.08,-171 694.42,-171 694.42,-171 826.83,-171 826.83,-171 830.17,-171 833.5,-174.33 833.5,-177.67 833.5,-177.67 833.5,-184.33 833.5,-184.33 833.5,-187.67 830.17,-191 826.83,-191"/>
<text xml:space="preserve" text-anchor="middle" x="760.62" y="-177.5" font-family="Arial" font-size="10.00" fill="#c6c5fe">../accounts/server/methods.js</text>
</g>
<!-- ../accounts/server/methods.js&#45;&gt;../lib/schemas/SimpleSchemas/Patients.js -->
<g id="edge12" class="edge">
<title>../accounts/server/methods.js&#45;&gt;../lib/schemas/SimpleSchemas/Patients.js</title>
<path fill="none" stroke="#757575" d="M833.85,-179.96C851.45,-182.85 869.17,-188.77 883,-200 918.05,-228.46 883.8,-266.73 919,-295 924.99,-299.81 931.65,-303.69 938.71,-306.79"/>
<polygon fill="#757575" stroke="#757575" points="937.29,-310 947.88,-310.27 939.77,-303.45 937.29,-310"/>
</g>
<!-- ../lib/FhirUtilities.js -->
<g id="node9" class="node">
<title>../lib/FhirUtilities.js</title>
<path fill="none" stroke="#cfffac" d="M1092.58,-410C1092.58,-410 1008.17,-410 1008.17,-410 1004.83,-410 1001.5,-406.67 1001.5,-403.33 1001.5,-403.33 1001.5,-396.67 1001.5,-396.67 1001.5,-393.33 1004.83,-390 1008.17,-390 1008.17,-390 1092.58,-390 1092.58,-390 1095.92,-390 1099.25,-393.33 1099.25,-396.67 1099.25,-396.67 1099.25,-403.33 1099.25,-403.33 1099.25,-406.67 1095.92,-410 1092.58,-410"/>
<text xml:space="preserve" text-anchor="middle" x="1050.38" y="-396.5" font-family="Arial" font-size="10.00" fill="#cfffac">../lib/FhirUtilities.js</text>
</g>
<!-- ../accounts/server/methods.js&#45;&gt;../lib/FhirUtilities.js -->
<g id="edge5" class="edge">
<title>../accounts/server/methods.js&#45;&gt;../lib/FhirUtilities.js</title>
<path fill="none" stroke="#757575" d="M833.99,-178.96C851.8,-181.81 869.58,-187.97 883,-200 928.6,-240.88 880.48,-285.39 919,-333 939.63,-358.5 972.54,-375.31 1000.13,-385.71"/>
<polygon fill="#757575" stroke="#757575" points="998.77,-388.94 1009.37,-389.01 1001.13,-382.35 998.77,-388.94"/>
</g>
<!-- ../lib/schemas/SimpleSchemas/CarePlans.js -->
<g id="node10" class="node">
<title>../lib/schemas/SimpleSchemas/CarePlans.js</title>
<path fill="none" stroke="#c6c5fe" d="M1149.21,-96C1149.21,-96 951.54,-96 951.54,-96 948.21,-96 944.88,-92.67 944.88,-89.33 944.88,-89.33 944.88,-82.67 944.88,-82.67 944.88,-79.33 948.21,-76 951.54,-76 951.54,-76 1149.21,-76 1149.21,-76 1152.54,-76 1155.88,-79.33 1155.88,-82.67 1155.88,-82.67 1155.88,-89.33 1155.88,-89.33 1155.88,-92.67 1152.54,-96 1149.21,-96"/>
<text xml:space="preserve" text-anchor="middle" x="1050.38" y="-82.5" font-family="Arial" font-size="10.00" fill="#c6c5fe">../lib/schemas/SimpleSchemas/CarePlans.js</text>
</g>
<!-- ../accounts/server/methods.js&#45;&gt;../lib/schemas/SimpleSchemas/CarePlans.js -->
<g id="edge6" class="edge">
<title>../accounts/server/methods.js&#45;&gt;../lib/schemas/SimpleSchemas/CarePlans.js</title>
<path fill="none" stroke="#757575" d="M778.39,-170.77C806.41,-154.16 865.04,-121.53 919,-105 926.67,-102.65 934.68,-100.59 942.8,-98.78"/>
<polygon fill="#757575" stroke="#757575" points="943.36,-102.24 952.44,-96.77 941.93,-95.38 943.36,-102.24"/>
</g>
<!-- ../lib/schemas/SimpleSchemas/CareTeams.js -->
<g id="node11" class="node">
<title>../lib/schemas/SimpleSchemas/CareTeams.js</title>
<path fill="none" stroke="#c6c5fe" d="M1151.46,-58C1151.46,-58 949.29,-58 949.29,-58 945.96,-58 942.62,-54.67 942.62,-51.33 942.62,-51.33 942.62,-44.67 942.62,-44.67 942.62,-41.33 945.96,-38 949.29,-38 949.29,-38 1151.46,-38 1151.46,-38 1154.79,-38 1158.12,-41.33 1158.12,-44.67 1158.12,-44.67 1158.12,-51.33 1158.12,-51.33 1158.12,-54.67 1154.79,-58 1151.46,-58"/>
<text xml:space="preserve" text-anchor="middle" x="1050.38" y="-44.5" font-family="Arial" font-size="10.00" fill="#c6c5fe">../lib/schemas/SimpleSchemas/CareTeams.js</text>
</g>
<!-- ../accounts/server/methods.js&#45;&gt;../lib/schemas/SimpleSchemas/CareTeams.js -->
<g id="edge7" class="edge">
<title>../accounts/server/methods.js&#45;&gt;../lib/schemas/SimpleSchemas/CareTeams.js</title>
<path fill="none" stroke="#757575" d="M771.95,-170.67C795.6,-147.69 856.49,-92.39 919,-67 923.97,-64.98 929.12,-63.17 934.39,-61.55"/>
<polygon fill="#757575" stroke="#757575" points="935.17,-64.97 943.86,-58.9 933.28,-58.23 935.17,-64.97"/>
</g>
<!-- ../lib/schemas/SimpleSchemas/Conditions.js -->
<g id="node12" class="node">
<title>../lib/schemas/SimpleSchemas/Conditions.js</title>
<path fill="none" stroke="#c6c5fe" d="M1149.58,-20C1149.58,-20 951.17,-20 951.17,-20 947.83,-20 944.5,-16.67 944.5,-13.33 944.5,-13.33 944.5,-6.67 944.5,-6.67 944.5,-3.33 947.83,0 951.17,0 951.17,0 1149.58,0 1149.58,0 1152.92,0 1156.25,-3.33 1156.25,-6.67 1156.25,-6.67 1156.25,-13.33 1156.25,-13.33 1156.25,-16.67 1152.92,-20 1149.58,-20"/>
<text xml:space="preserve" text-anchor="middle" x="1050.38" y="-6.5" font-family="Arial" font-size="10.00" fill="#c6c5fe">../lib/schemas/SimpleSchemas/Conditions.js</text>
</g>
<!-- ../accounts/server/methods.js&#45;&gt;../lib/schemas/SimpleSchemas/Conditions.js -->
<g id="edge8" class="edge">
<title>../accounts/server/methods.js&#45;&gt;../lib/schemas/SimpleSchemas/Conditions.js</title>
<path fill="none" stroke="#757575" d="M768.67,-170.64C788.51,-142.4 848.08,-63.82 919,-29 923.57,-26.76 928.33,-24.76 933.22,-22.98"/>
<polygon fill="#757575" stroke="#757575" points="934.22,-26.34 942.64,-19.91 932.05,-19.68 934.22,-26.34"/>
</g>
<!-- ../lib/schemas/SimpleSchemas/Devices.js -->
<g id="node13" class="node">
<title>../lib/schemas/SimpleSchemas/Devices.js</title>
<path fill="none" stroke="#c6c5fe" d="M1144.33,-286C1144.33,-286 956.42,-286 956.42,-286 953.08,-286 949.75,-282.67 949.75,-279.33 949.75,-279.33 949.75,-272.67 949.75,-272.67 949.75,-269.33 953.08,-266 956.42,-266 956.42,-266 1144.33,-266 1144.33,-266 1147.67,-266 1151,-269.33 1151,-272.67 1151,-272.67 1151,-279.33 1151,-279.33 1151,-282.67 1147.67,-286 1144.33,-286"/>
<text xml:space="preserve" text-anchor="middle" x="1050.38" y="-272.5" font-family="Arial" font-size="10.00" fill="#c6c5fe">../lib/schemas/SimpleSchemas/Devices.js</text>
</g>
<!-- ../accounts/server/methods.js&#45;&gt;../lib/schemas/SimpleSchemas/Devices.js -->
<g id="edge9" class="edge">
<title>../accounts/server/methods.js&#45;&gt;../lib/schemas/SimpleSchemas/Devices.js</title>
<path fill="none" stroke="#757575" d="M834,-182.2C851.11,-185.13 868.56,-190.51 883,-200 908.04,-216.45 893.87,-240.68 919,-257 925.19,-261.02 931.88,-264.33 938.86,-267.04"/>
<polygon fill="#757575" stroke="#757575" points="937.24,-270.18 947.83,-270.11 939.51,-263.56 937.24,-270.18"/>
</g>
<!-- ../lib/schemas/SimpleSchemas/MedicationStatements.js -->
<g id="node14" class="node">
<title>../lib/schemas/SimpleSchemas/MedicationStatements.js</title>
<path fill="none" stroke="#c6c5fe" d="M1175.08,-248C1175.08,-248 925.67,-248 925.67,-248 922.33,-248 919,-244.67 919,-241.33 919,-241.33 919,-234.67 919,-234.67 919,-231.33 922.33,-228 925.67,-228 925.67,-228 1175.08,-228 1175.08,-228 1178.42,-228 1181.75,-231.33 1181.75,-234.67 1181.75,-234.67 1181.75,-241.33 1181.75,-241.33 1181.75,-244.67 1178.42,-248 1175.08,-248"/>
<text xml:space="preserve" text-anchor="middle" x="1050.38" y="-234.5" font-family="Arial" font-size="10.00" fill="#c6c5fe">../lib/schemas/SimpleSchemas/MedicationStatements.js</text>
</g>
<!-- ../accounts/server/methods.js&#45;&gt;../lib/schemas/SimpleSchemas/MedicationStatements.js -->
<g id="edge10" class="edge">
<title>../accounts/server/methods.js&#45;&gt;../lib/schemas/SimpleSchemas/MedicationStatements.js</title>
<path fill="none" stroke="#757575" d="M833.8,-188.29C850.22,-191.05 867.41,-194.83 883,-200 900.17,-205.7 901.8,-213.39 919,-219 926.09,-221.31 933.48,-223.34 940.99,-225.12"/>
<polygon fill="#757575" stroke="#757575" points="940.06,-228.5 950.58,-227.24 941.56,-221.67 940.06,-228.5"/>
</g>
<!-- ../lib/schemas/SimpleSchemas/Observations.js -->
<g id="node15" class="node">
<title>../lib/schemas/SimpleSchemas/Observations.js</title>
<path fill="none" stroke="#c6c5fe" d="M1155.21,-210C1155.21,-210 945.54,-210 945.54,-210 942.21,-210 938.88,-206.67 938.88,-203.33 938.88,-203.33 938.88,-196.67 938.88,-196.67 938.88,-193.33 942.21,-190 945.54,-190 945.54,-190 1155.21,-190 1155.21,-190 1158.54,-190 1161.88,-193.33 1161.88,-196.67 1161.88,-196.67 1161.88,-203.33 1161.88,-203.33 1161.88,-206.67 1158.54,-210 1155.21,-210"/>
<text xml:space="preserve" text-anchor="middle" x="1050.38" y="-196.5" font-family="Arial" font-size="10.00" fill="#c6c5fe">../lib/schemas/SimpleSchemas/Observations.js</text>
</g>
<!-- ../accounts/server/methods.js&#45;&gt;../lib/schemas/SimpleSchemas/Observations.js -->
<g id="edge11" class="edge">
<title>../accounts/server/methods.js&#45;&gt;../lib/schemas/SimpleSchemas/Observations.js</title>
<path fill="none" stroke="#757575" d="M833.87,-185.77C862.16,-187.64 895.42,-189.83 927.23,-191.93"/>
<polygon fill="#757575" stroke="#757575" points="926.69,-195.41 936.89,-192.57 927.15,-188.42 926.69,-195.41"/>
</g>
<!-- ../lib/schemas/SimpleSchemas/Practitioners.js -->
<g id="node16" class="node">
<title>../lib/schemas/SimpleSchemas/Practitioners.js</title>
<path fill="none" stroke="#c6c5fe" d="M1153.71,-172C1153.71,-172 947.04,-172 947.04,-172 943.71,-172 940.38,-168.67 940.38,-165.33 940.38,-165.33 940.38,-158.67 940.38,-158.67 940.38,-155.33 943.71,-152 947.04,-152 947.04,-152 1153.71,-152 1153.71,-152 1157.04,-152 1160.38,-155.33 1160.38,-158.67 1160.38,-158.67 1160.38,-165.33 1160.38,-165.33 1160.38,-168.67 1157.04,-172 1153.71,-172"/>
<text xml:space="preserve" text-anchor="middle" x="1050.38" y="-158.5" font-family="Arial" font-size="10.00" fill="#c6c5fe">../lib/schemas/SimpleSchemas/Practitioners.js</text>
</g>
<!-- ../accounts/server/methods.js&#45;&gt;../lib/schemas/SimpleSchemas/Practitioners.js -->
<g id="edge13" class="edge">
<title>../accounts/server/methods.js&#45;&gt;../lib/schemas/SimpleSchemas/Practitioners.js</title>
<path fill="none" stroke="#757575" d="M833.87,-176.23C862.61,-174.33 896.47,-172.1 928.73,-169.97"/>
<polygon fill="#757575" stroke="#757575" points="928.81,-173.47 938.55,-169.32 928.34,-166.48 928.81,-173.47"/>
</g>
<!-- ../lib/schemas/SimpleSchemas/Procedures.js -->
<g id="node17" class="node">
<title>../lib/schemas/SimpleSchemas/Procedures.js</title>
<path fill="none" stroke="#c6c5fe" d="M1151.08,-134C1151.08,-134 949.67,-134 949.67,-134 946.33,-134 943,-130.67 943,-127.33 943,-127.33 943,-120.67 943,-120.67 943,-117.33 946.33,-114 949.67,-114 949.67,-114 1151.08,-114 1151.08,-114 1154.42,-114 1157.75,-117.33 1157.75,-120.67 1157.75,-120.67 1157.75,-127.33 1157.75,-127.33 1157.75,-130.67 1154.42,-134 1151.08,-134"/>
<text xml:space="preserve" text-anchor="middle" x="1050.38" y="-120.5" font-family="Arial" font-size="10.00" fill="#c6c5fe">../lib/schemas/SimpleSchemas/Procedures.js</text>
</g>
<!-- ../accounts/server/methods.js&#45;&gt;../lib/schemas/SimpleSchemas/Procedures.js -->
<g id="edge14" class="edge">
<title>../accounts/server/methods.js&#45;&gt;../lib/schemas/SimpleSchemas/Procedures.js</title>
<path fill="none" stroke="#757575" d="M800.53,-170.55C832.25,-162.28 878.29,-150.86 919,-143 931.63,-140.56 945.01,-138.27 958.19,-136.19"/>
<polygon fill="#757575" stroke="#757575" points="958.35,-139.71 967.7,-134.73 957.29,-132.79 958.35,-139.71"/>
</g>
<!-- ../lib/schemas/SimpleSchemas/CarePlans.js&#45;&gt;../lib/BaseModel.js -->
<g id="edge23" class="edge">
<title>../lib/schemas/SimpleSchemas/CarePlans.js&#45;&gt;../lib/BaseModel.js</title>
<path fill="none" stroke="#757575" d="M1154.3,-96.48C1163.73,-98.79 1173.01,-101.59 1181.75,-105 1205.54,-114.28 1229.25,-131.41 1245.29,-144.48"/>
<polygon fill="#757575" stroke="#757575" points="1242.73,-146.9 1252.64,-150.64 1247.23,-141.54 1242.73,-146.9"/>
</g>
<!-- ../lib/schemas/SimpleSchemas/CareTeams.js&#45;&gt;../lib/BaseModel.js -->
<g id="edge24" class="edge">
<title>../lib/schemas/SimpleSchemas/CareTeams.js&#45;&gt;../lib/BaseModel.js</title>
<path fill="none" stroke="#757575" d="M1158.37,-57.17C1166.52,-59.78 1174.41,-63.02 1181.75,-67 1213.93,-84.46 1239.61,-119.47 1253.61,-141.77"/>
<polygon fill="#757575" stroke="#757575" points="1250.57,-143.51 1258.74,-150.26 1256.56,-139.89 1250.57,-143.51"/>
</g>
<!-- ../lib/schemas/SimpleSchemas/Conditions.js&#45;&gt;../lib/BaseModel.js -->
<g id="edge25" class="edge">
<title>../lib/schemas/SimpleSchemas/Conditions.js&#45;&gt;../lib/BaseModel.js</title>
<path fill="none" stroke="#757575" d="M1156.49,-16.97C1165.42,-20.01 1173.99,-23.94 1181.75,-29 1222.89,-55.8 1247.47,-110.72 1258.43,-140.92"/>
<polygon fill="#757575" stroke="#757575" points="1255.02,-141.78 1261.59,-150.09 1261.64,-139.5 1255.02,-141.78"/>
</g>
<!-- ../lib/schemas/SimpleSchemas/Devices.js&#45;&gt;../lib/BaseModel.js -->
<g id="edge26" class="edge">
<title>../lib/schemas/SimpleSchemas/Devices.js&#45;&gt;../lib/BaseModel.js</title>
<path fill="none" stroke="#757575" d="M1151.29,-268.94C1161.93,-266.01 1172.3,-262.13 1181.75,-257 1213.93,-239.54 1239.61,-204.53 1253.61,-182.23"/>
<polygon fill="#757575" stroke="#757575" points="1256.56,-184.11 1258.74,-173.74 1250.57,-180.49 1256.56,-184.11"/>
</g>
<!-- ../lib/schemas/SimpleSchemas/MedicationStatements.js&#45;&gt;../lib/BaseModel.js -->
<g id="edge27" class="edge">
<title>../lib/schemas/SimpleSchemas/MedicationStatements.js&#45;&gt;../lib/BaseModel.js</title>
<path fill="none" stroke="#757575" d="M1154.3,-227.52C1163.73,-225.21 1173.01,-222.41 1181.75,-219 1205.54,-209.72 1229.25,-192.59 1245.29,-179.52"/>
<polygon fill="#757575" stroke="#757575" points="1247.23,-182.46 1252.64,-173.36 1242.73,-177.1 1247.23,-182.46"/>
</g>
<!-- ../lib/schemas/SimpleSchemas/Observations.js&#45;&gt;../lib/BaseModel.js -->
<g id="edge28" class="edge">
<title>../lib/schemas/SimpleSchemas/Observations.js&#45;&gt;../lib/BaseModel.js</title>
<path fill="none" stroke="#757575" d="M1130.14,-189.55C1147.2,-187 1165.11,-184.1 1181.75,-181 1191.41,-179.2 1201.65,-177.06 1211.53,-174.88"/>
<polygon fill="#757575" stroke="#757575" points="1212.01,-178.36 1221,-172.75 1210.48,-171.53 1212.01,-178.36"/>
</g>
<!-- ../lib/schemas/SimpleSchemas/Practitioners.js&#45;&gt;../lib/BaseModel.js -->
<g id="edge30" class="edge">
<title>../lib/schemas/SimpleSchemas/Practitioners.js&#45;&gt;../lib/BaseModel.js</title>
<path fill="none" stroke="#757575" d="M1160.82,-162C1176.4,-162 1191.9,-162 1206.01,-162"/>
<polygon fill="#757575" stroke="#757575" points="1206,-165.5 1216,-162 1206,-158.5 1206,-165.5"/>
</g>
<!-- ../lib/schemas/SimpleSchemas/Procedures.js&#45;&gt;../lib/BaseModel.js -->
<g id="edge31" class="edge">
<title>../lib/schemas/SimpleSchemas/Procedures.js&#45;&gt;../lib/BaseModel.js</title>
<path fill="none" stroke="#757575" d="M1130.14,-134.45C1147.2,-137 1165.11,-139.9 1181.75,-143 1191.41,-144.8 1201.65,-146.94 1211.53,-149.12"/>
<polygon fill="#757575" stroke="#757575" points="1210.48,-152.47 1221,-151.25 1212.01,-145.64 1210.48,-152.47"/>
</g>
<!-- ../accounts/server/middleware.js -->
<g id="node18" class="node">
<title>../accounts/server/middleware.js</title>
<path fill="none" stroke="#cfffac" d="M832.83,-419C832.83,-419 688.42,-419 688.42,-419 685.08,-419 681.75,-415.67 681.75,-412.33 681.75,-412.33 681.75,-405.67 681.75,-405.67 681.75,-402.33 685.08,-399 688.42,-399 688.42,-399 832.83,-399 832.83,-399 836.17,-399 839.5,-402.33 839.5,-405.67 839.5,-405.67 839.5,-412.33 839.5,-412.33 839.5,-415.67 836.17,-419 832.83,-419"/>
<text xml:space="preserve" text-anchor="middle" x="760.62" y="-405.5" font-family="Arial" font-size="10.00" fill="#cfffac">../accounts/server/middleware.js</text>
</g>
<!-- ../accounts/server/oauth&#45;integration.js -->
<g id="node19" class="node">
<title>../accounts/server/oauth&#45;integration.js</title>
<path fill="none" stroke="#cfffac" d="M844.08,-381C844.08,-381 677.17,-381 677.17,-381 673.83,-381 670.5,-377.67 670.5,-374.33 670.5,-374.33 670.5,-367.67 670.5,-367.67 670.5,-364.33 673.83,-361 677.17,-361 677.17,-361 844.08,-361 844.08,-361 847.42,-361 850.75,-364.33 850.75,-367.67 850.75,-367.67 850.75,-374.33 850.75,-374.33 850.75,-377.67 847.42,-381 844.08,-381"/>
<text xml:space="preserve" text-anchor="middle" x="760.62" y="-367.5" font-family="Arial" font-size="10.00" fill="#cfffac">../accounts/server/oauth&#45;integration.js</text>
</g>
<!-- ../accounts/server/simple&#45;auth&#45;methods.js -->
<g id="node20" class="node">
<title>../accounts/server/simple&#45;auth&#45;methods.js</title>
<path fill="none" stroke="#cfffac" d="M389.08,-524C389.08,-524 203.42,-524 203.42,-524 200.08,-524 196.75,-520.67 196.75,-517.33 196.75,-517.33 196.75,-510.67 196.75,-510.67 196.75,-507.33 200.08,-504 203.42,-504 203.42,-504 389.08,-504 389.08,-504 392.42,-504 395.75,-507.33 395.75,-510.67 395.75,-510.67 395.75,-517.33 395.75,-517.33 395.75,-520.67 392.42,-524 389.08,-524"/>
<text xml:space="preserve" text-anchor="middle" x="296.25" y="-510.5" font-family="Arial" font-size="10.00" fill="#cfffac">../accounts/server/simple&#45;auth&#45;methods.js</text>
</g>
<!-- ../accounts/server/startup.js -->
<g id="node21" class="node">
<title>../accounts/server/startup.js</title>
<path fill="none" stroke="#c6c5fe" d="M579.46,-305C579.46,-305 454.54,-305 454.54,-305 451.21,-305 447.88,-301.67 447.88,-298.33 447.88,-298.33 447.88,-291.67 447.88,-291.67 447.88,-288.33 451.21,-285 454.54,-285 454.54,-285 579.46,-285 579.46,-285 582.79,-285 586.12,-288.33 586.12,-291.67 586.12,-291.67 586.12,-298.33 586.12,-298.33 586.12,-301.67 582.79,-305 579.46,-305"/>
<text xml:space="preserve" text-anchor="middle" x="517" y="-291.5" font-family="Arial" font-size="10.00" fill="#c6c5fe">../accounts/server/startup.js</text>
</g>
<!-- ../accounts/server/startup.js&#45;&gt;../accounts/server/accounts&#45;server.js -->
<g id="edge15" class="edge">
<title>../accounts/server/startup.js&#45;&gt;../accounts/server/accounts&#45;server.js</title>
<path fill="none" stroke="#757575" d="M586.59,-295C609.46,-295 635.42,-295 660.15,-295"/>
<polygon fill="#757575" stroke="#757575" points="659.89,-298.5 669.89,-295 659.89,-291.5 659.89,-298.5"/>
</g>
<!-- ../accounts/server/startup.js&#45;&gt;../accounts/server/dev&#45;autologin.js -->
<g id="edge16" class="edge">
<title>../accounts/server/startup.js&#45;&gt;../accounts/server/dev&#45;autologin.js</title>
<path fill="none" stroke="#757575" d="M584.15,-284.53C601.74,-281.75 620.71,-278.76 638.25,-276 652.13,-273.82 666.91,-271.5 681.2,-269.26"/>
<polygon fill="#757575" stroke="#757575" points="681.7,-272.72 691.03,-267.72 680.61,-265.81 681.7,-272.72"/>
</g>
<!-- ../accounts/server/startup.js&#45;&gt;../accounts/server/email&#45;config.js -->
<g id="edge17" class="edge">
<title>../accounts/server/startup.js&#45;&gt;../accounts/server/email&#45;config.js</title>
<path fill="none" stroke="#757575" d="M535.68,-284.62C558.57,-271.66 600.05,-249.77 638.25,-238 647.98,-235 658.3,-232.46 668.65,-230.31"/>
<polygon fill="#757575" stroke="#757575" points="669.24,-233.76 678.39,-228.42 667.91,-226.89 669.24,-233.76"/>
</g>
<!-- ../accounts/server/startup.js&#45;&gt;../accounts/server/methods.js -->
<g id="edge18" class="edge">
<title>../accounts/server/startup.js&#45;&gt;../accounts/server/methods.js</title>
<path fill="none" stroke="#757575" d="M527.42,-284.62C546.28,-264.57 590.95,-220.67 638.25,-200 650.16,-194.8 663.28,-190.99 676.35,-188.22"/>
<polygon fill="#757575" stroke="#757575" points="676.65,-191.73 685.81,-186.41 675.33,-184.85 676.65,-191.73"/>
</g>
<!-- ../accounts/server/startup.js&#45;&gt;../accounts/server/middleware.js -->
<g id="edge19" class="edge">
<title>../accounts/server/startup.js&#45;&gt;../accounts/server/middleware.js</title>
<path fill="none" stroke="#757575" d="M586.3,-304.56C592.03,-307.06 597.45,-310.16 602.25,-314 631.43,-337.36 608.31,-367.62 638.25,-390 647.7,-397.06 658.74,-401.96 670.23,-405.3"/>
<polygon fill="#757575" stroke="#757575" points="669.33,-408.68 679.88,-407.68 671.01,-401.89 669.33,-408.68"/>
</g>
<!-- ../accounts/server/startup.js&#45;&gt;../accounts/server/oauth&#45;integration.js -->
<g id="edge20" class="edge">
<title>../accounts/server/startup.js&#45;&gt;../accounts/server/oauth&#45;integration.js</title>
<path fill="none" stroke="#757575" d="M582.96,-305.5C589.69,-307.79 596.25,-310.59 602.25,-314 622.47,-325.5 617.66,-341.18 638.25,-352 644.91,-355.5 652.04,-358.4 659.38,-360.79"/>
<polygon fill="#757575" stroke="#757575" points="658.23,-364.1 668.81,-363.52 660.18,-357.38 658.23,-364.1"/>
</g>
<!-- ../accounts/server/test&#45;methods.js -->
<g id="node22" class="node">
<title>../accounts/server/test&#45;methods.js</title>
<path fill="none" stroke="#cfffac" d="M836.58,-343C836.58,-343 684.67,-343 684.67,-343 681.33,-343 678,-339.67 678,-336.33 678,-336.33 678,-329.67 678,-329.67 678,-326.33 681.33,-323 684.67,-323 684.67,-323 836.58,-323 836.58,-323 839.92,-323 843.25,-326.33 843.25,-329.67 843.25,-329.67 843.25,-336.33 843.25,-336.33 843.25,-339.67 839.92,-343 836.58,-343"/>
<text xml:space="preserve" text-anchor="middle" x="760.62" y="-329.5" font-family="Arial" font-size="10.00" fill="#cfffac">../accounts/server/test&#45;methods.js</text>
</g>
<!-- ../accounts/server/startup.js&#45;&gt;../accounts/server/test&#45;methods.js -->
<g id="edge21" class="edge">
<title>../accounts/server/startup.js&#45;&gt;../accounts/server/test&#45;methods.js</title>
<path fill="none" stroke="#757575" d="M584.15,-305.47C601.74,-308.25 620.71,-311.24 638.25,-314 652.13,-316.18 666.91,-318.5 681.2,-320.74"/>
<polygon fill="#757575" stroke="#757575" points="680.61,-324.19 691.03,-322.28 681.7,-317.28 680.61,-324.19"/>
</g>
<!-- ../client/subscriptions/PatientSubscriptionManager.js -->
<g id="node23" class="node">
<title>../client/subscriptions/PatientSubscriptionManager.js</title>
<path fill="none" stroke="#c6c5fe" d="M876.33,-457C876.33,-457 644.92,-457 644.92,-457 641.58,-457 638.25,-453.67 638.25,-450.33 638.25,-450.33 638.25,-443.67 638.25,-443.67 638.25,-440.33 641.58,-437 644.92,-437 644.92,-437 876.33,-437 876.33,-437 879.67,-437 883,-440.33 883,-443.67 883,-443.67 883,-450.33 883,-450.33 883,-453.67 879.67,-457 876.33,-457"/>
<text xml:space="preserve" text-anchor="middle" x="760.62" y="-443.5" font-family="Arial" font-size="10.00" fill="#c6c5fe">../client/subscriptions/PatientSubscriptionManager.js</text>
</g>
<!-- ../client/subscriptions/PatientSubscriptionManager.js&#45;&gt;../lib/FhirUtilities.js -->
<g id="edge22" class="edge">
<title>../client/subscriptions/PatientSubscriptionManager.js&#45;&gt;../lib/FhirUtilities.js</title>
<path fill="none" stroke="#757575" d="M829.37,-436.53C846.85,-433.8 865.63,-430.82 883,-428 918.53,-422.23 958.3,-415.55 990.04,-410.16"/>
<polygon fill="#757575" stroke="#757575" points="990.58,-413.61 999.85,-408.49 989.41,-406.71 990.58,-413.61"/>
</g>
<!-- client/accounts&#45;startup.js -->
<g id="node25" class="node">
<title>client/accounts&#45;startup.js</title>
<path fill="none" stroke="#c6c5fe" d="M573.08,-533C573.08,-533 460.92,-533 460.92,-533 457.58,-533 454.25,-529.67 454.25,-526.33 454.25,-526.33 454.25,-519.67 454.25,-519.67 454.25,-516.33 457.58,-513 460.92,-513 460.92,-513 573.08,-513 573.08,-513 576.42,-513 579.75,-516.33 579.75,-519.67 579.75,-519.67 579.75,-526.33 579.75,-526.33 579.75,-529.67 576.42,-533 573.08,-533"/>
<text xml:space="preserve" text-anchor="middle" x="517" y="-519.5" font-family="Arial" font-size="10.00" fill="#c6c5fe">client/accounts&#45;startup.js</text>
</g>
<!-- client/accounts&#45;startup.js&#45;&gt;../accounts/client/startup.js -->
<g id="edge32" class="edge">
<title>client/accounts&#45;startup.js&#45;&gt;../accounts/client/startup.js</title>
<path fill="none" stroke="#757575" d="M580.1,-513.17C598.79,-510.22 619.35,-506.97 638.25,-504 652.44,-501.77 667.56,-499.4 682.14,-497.11"/>
<polygon fill="#757575" stroke="#757575" points="682.33,-500.63 691.67,-495.62 681.25,-493.71 682.33,-500.63"/>
</g>
<!-- client/accounts&#45;startup.js&#45;&gt;../accounts/client/test&#45;accounts.js -->
<g id="edge33" class="edge">
<title>client/accounts&#45;startup.js&#45;&gt;../accounts/client/test&#45;accounts.js</title>
<path fill="none" stroke="#757575" d="M580.22,-523C606.64,-523 637.99,-523 667.03,-523"/>
<polygon fill="#757575" stroke="#757575" points="666.94,-526.5 676.94,-523 666.94,-519.5 666.94,-526.5"/>
</g>
<!-- client/collections.js -->
<g id="node26" class="node">
<title>client/collections.js</title>
<path fill="none" stroke="#cfffac" d="M559.96,-419C559.96,-419 474.04,-419 474.04,-419 470.71,-419 467.38,-415.67 467.38,-412.33 467.38,-412.33 467.38,-405.67 467.38,-405.67 467.38,-402.33 470.71,-399 474.04,-399 474.04,-399 559.96,-399 559.96,-399 563.29,-399 566.62,-402.33 566.62,-405.67 566.62,-405.67 566.62,-412.33 566.62,-412.33 566.62,-415.67 563.29,-419 559.96,-419"/>
<text xml:space="preserve" text-anchor="middle" x="517" y="-405.5" font-family="Arial" font-size="10.00" fill="#cfffac">client/collections.js</text>
</g>
<!-- client/core&#45;startup.js -->
<g id="node27" class="node">
<title>client/core&#45;startup.js</title>
<path fill="none" stroke="#cfffac" d="M562.58,-381C562.58,-381 471.42,-381 471.42,-381 468.08,-381 464.75,-377.67 464.75,-374.33 464.75,-374.33 464.75,-367.67 464.75,-367.67 464.75,-364.33 468.08,-361 471.42,-361 471.42,-361 562.58,-361 562.58,-361 565.92,-361 569.25,-364.33 569.25,-367.67 569.25,-367.67 569.25,-374.33 569.25,-374.33 569.25,-377.67 565.92,-381 562.58,-381"/>
<text xml:space="preserve" text-anchor="middle" x="517" y="-367.5" font-family="Arial" font-size="10.00" fill="#cfffac">client/core&#45;startup.js</text>
</g>
<!-- client/cornerstone&#45;setup.js -->
<g id="node28" class="node">
<title>client/cornerstone&#45;setup.js</title>
<path fill="none" stroke="#cfffac" d="M575.71,-343C575.71,-343 458.29,-343 458.29,-343 454.96,-343 451.62,-339.67 451.62,-336.33 451.62,-336.33 451.62,-329.67 451.62,-329.67 451.62,-326.33 454.96,-323 458.29,-323 458.29,-323 575.71,-323 575.71,-323 579.04,-323 582.38,-326.33 582.38,-329.67 582.38,-329.67 582.38,-336.33 582.38,-336.33 582.38,-339.67 579.04,-343 575.71,-343"/>
<text xml:space="preserve" text-anchor="middle" x="517" y="-329.5" font-family="Arial" font-size="10.00" fill="#cfffac">client/cornerstone&#45;setup.js</text>
</g>
<!-- client/index.js -->
<g id="node29" class="node">
<title>client/index.js</title>
<path fill="none" stroke="#c6c5fe" d="M327.58,-448C327.58,-448 264.92,-448 264.92,-448 261.58,-448 258.25,-444.67 258.25,-441.33 258.25,-441.33 258.25,-434.67 258.25,-434.67 258.25,-431.33 261.58,-428 264.92,-428 264.92,-428 327.58,-428 327.58,-428 330.92,-428 334.25,-431.33 334.25,-434.67 334.25,-434.67 334.25,-441.33 334.25,-441.33 334.25,-444.67 330.92,-448 327.58,-448"/>
<text xml:space="preserve" text-anchor="middle" x="296.25" y="-434.5" font-family="Arial" font-size="10.00" fill="#c6c5fe">client/index.js</text>
</g>
<!-- client/index.js&#45;&gt;client/accounts&#45;startup.js -->
<g id="edge34" class="edge">
<title>client/index.js&#45;&gt;client/accounts&#45;startup.js</title>
<path fill="none" stroke="#757575" d="M334.63,-438.93C354.08,-440.91 377.53,-445.73 395.75,-457 418.13,-470.84 409.59,-489.81 431.75,-504 435.48,-506.39 439.47,-508.48 443.61,-510.31"/>
<polygon fill="#757575" stroke="#757575" points="442.15,-513.49 452.74,-513.79 444.65,-506.95 442.15,-513.49"/>
</g>
<!-- client/index.js&#45;&gt;client/collections.js -->
<g id="edge35" class="edge">
<title>client/index.js&#45;&gt;client/collections.js</title>
<path fill="none" stroke="#757575" d="M334.36,-433.08C367.64,-428.67 417.08,-422.11 455.99,-416.96"/>
<polygon fill="#757575" stroke="#757575" points="456.22,-420.46 465.67,-415.67 455.3,-413.52 456.22,-420.46"/>
</g>
<!-- client/index.js&#45;&gt;client/core&#45;startup.js -->
<g id="edge36" class="edge">
<title>client/index.js&#45;&gt;client/core&#45;startup.js</title>
<path fill="none" stroke="#757575" d="M323.23,-427.67C350.1,-417.24 393.41,-401.12 431.75,-390 438.91,-387.92 446.47,-385.94 454,-384.08"/>
<polygon fill="#757575" stroke="#757575" points="454.57,-387.54 463.49,-381.82 452.95,-380.74 454.57,-387.54"/>
</g>
<!-- client/index.js&#45;&gt;client/cornerstone&#45;setup.js -->
<g id="edge37" class="edge">
<title>client/index.js&#45;&gt;client/cornerstone&#45;setup.js</title>
<path fill="none" stroke="#757575" d="M334.35,-429.05C353.95,-423.06 377.63,-413.71 395.75,-400 417.02,-383.91 409.37,-366.49 431.75,-352 434.68,-350.11 437.77,-348.4 440.97,-346.86"/>
<polygon fill="#757575" stroke="#757575" points="442.19,-350.14 450.09,-343.08 439.51,-343.67 442.19,-350.14"/>
</g>
<!-- client/oauth&#45;startup.js -->
<g id="node30" class="node">
<title>client/oauth&#45;startup.js</title>
<path fill="none" stroke="#cfffac" d="M565.21,-571C565.21,-571 468.79,-571 468.79,-571 465.46,-571 462.12,-567.67 462.12,-564.33 462.12,-564.33 462.12,-557.67 462.12,-557.67 462.12,-554.33 465.46,-551 468.79,-551 468.79,-551 565.21,-551 565.21,-551 568.54,-551 571.88,-554.33 571.88,-557.67 571.88,-557.67 571.88,-564.33 571.88,-564.33 571.88,-567.67 568.54,-571 565.21,-571"/>
<text xml:space="preserve" text-anchor="middle" x="517" y="-557.5" font-family="Arial" font-size="10.00" fill="#cfffac">client/oauth&#45;startup.js</text>
</g>
<!-- client/index.js&#45;&gt;client/oauth&#45;startup.js -->
<g id="edge38" class="edge">
<title>client/index.js&#45;&gt;client/oauth&#45;startup.js</title>
<path fill="none" stroke="#757575" d="M334.46,-437.04C354.56,-438.38 378.69,-443.2 395.75,-457 427.64,-482.81 400.27,-515.7 431.75,-542 437.47,-546.78 444.15,-550.42 451.19,-553.18"/>
<polygon fill="#757575" stroke="#757575" points="449.68,-556.37 460.27,-556.16 451.86,-549.72 449.68,-556.37"/>
</g>
<!-- client/patient&#45;subscription&#45;tracker.js -->
<g id="node31" class="node">
<title>client/patient&#45;subscription&#45;tracker.js</title>
<path fill="none" stroke="#c6c5fe" d="M595.58,-457C595.58,-457 438.42,-457 438.42,-457 435.08,-457 431.75,-453.67 431.75,-450.33 431.75,-450.33 431.75,-443.67 431.75,-443.67 431.75,-440.33 435.08,-437 438.42,-437 438.42,-437 595.58,-437 595.58,-437 598.92,-437 602.25,-440.33 602.25,-443.67 602.25,-443.67 602.25,-450.33 602.25,-450.33 602.25,-453.67 598.92,-457 595.58,-457"/>
<text xml:space="preserve" text-anchor="middle" x="517" y="-443.5" font-family="Arial" font-size="10.00" fill="#c6c5fe">client/patient&#45;subscription&#45;tracker.js</text>
</g>
<!-- client/index.js&#45;&gt;client/patient&#45;subscription&#45;tracker.js -->
<g id="edge39" class="edge">
<title>client/index.js&#45;&gt;client/patient&#45;subscription&#45;tracker.js</title>
<path fill="none" stroke="#757575" d="M334.36,-439.53C358.02,-440.5 389.86,-441.81 420.27,-443.06"/>
<polygon fill="#757575" stroke="#757575" points="419.74,-446.54 429.88,-443.46 420.03,-439.55 419.74,-446.54"/>
</g>
<!-- client/session&#45;overrides.js -->
<g id="node32" class="node">
<title>client/session&#45;overrides.js</title>
<path fill="none" stroke="#cfffac" d="M574.96,-495C574.96,-495 459.04,-495 459.04,-495 455.71,-495 452.38,-491.67 452.38,-488.33 452.38,-488.33 452.38,-481.67 452.38,-481.67 452.38,-478.33 455.71,-475 459.04,-475 459.04,-475 574.96,-475 574.96,-475 578.29,-475 581.62,-478.33 581.62,-481.67 581.62,-481.67 581.62,-488.33 581.62,-488.33 581.62,-491.67 578.29,-495 574.96,-495"/>
<text xml:space="preserve" text-anchor="middle" x="517" y="-481.5" font-family="Arial" font-size="10.00" fill="#cfffac">client/session&#45;overrides.js</text>
</g>
<!-- client/index.js&#45;&gt;client/session&#45;overrides.js -->
<g id="edge40" class="edge">
<title>client/index.js&#45;&gt;client/session&#45;overrides.js</title>
<path fill="none" stroke="#757575" d="M334.3,-444.65C352.81,-448.1 375.51,-452.52 395.75,-457 411.85,-460.56 415.7,-462.19 431.75,-466 440.07,-467.98 448.86,-470.02 457.5,-471.99"/>
<polygon fill="#757575" stroke="#757575" points="456.72,-475.4 467.25,-474.21 458.27,-468.58 456.72,-475.4"/>
</g>
<!-- client/patient&#45;subscription&#45;tracker.js&#45;&gt;../client/subscriptions/PatientSubscriptionManager.js -->
<g id="edge41" class="edge">
<title>client/patient&#45;subscription&#45;tracker.js&#45;&gt;../client/subscriptions/PatientSubscriptionManager.js</title>
<path fill="none" stroke="#757575" d="M602.51,-447C610.28,-447 618.27,-447 626.33,-447"/>
<polygon fill="#757575" stroke="#757575" points="626.26,-450.5 636.26,-447 626.26,-443.5 626.26,-450.5"/>
</g>
<!-- server/accounts&#45;startup.js -->
<g id="node33" class="node">
<title>server/accounts&#45;startup.js</title>
<path fill="none" stroke="#c6c5fe" d="M354.21,-315C354.21,-315 238.29,-315 238.29,-315 234.96,-315 231.62,-311.67 231.62,-308.33 231.62,-308.33 231.62,-301.67 231.62,-301.67 231.62,-298.33 234.96,-295 238.29,-295 238.29,-295 354.21,-295 354.21,-295 357.54,-295 360.88,-298.33 360.88,-301.67 360.88,-301.67 360.88,-308.33 360.88,-308.33 360.88,-311.67 357.54,-315 354.21,-315"/>
<text xml:space="preserve" text-anchor="middle" x="296.25" y="-301.5" font-family="Arial" font-size="10.00" fill="#c6c5fe">server/accounts&#45;startup.js</text>
</g>
<!-- server/accounts&#45;startup.js&#45;&gt;../accounts/server/startup.js -->
<g id="edge42" class="edge">
<title>server/accounts&#45;startup.js&#45;&gt;../accounts/server/startup.js</title>
<path fill="none" stroke="#757575" d="M361.11,-302.08C384.62,-301.01 411.55,-299.77 436.29,-298.64"/>
<polygon fill="#757575" stroke="#757575" points="436.14,-302.15 445.97,-298.2 435.82,-295.16 436.14,-302.15"/>
</g>
<!-- server/core&#45;startup.js -->
<g id="node34" class="node">
<title>server/core&#45;startup.js</title>
<path fill="none" stroke="#cfffac" d="M343.71,-277C343.71,-277 248.79,-277 248.79,-277 245.46,-277 242.12,-273.67 242.12,-270.33 242.12,-270.33 242.12,-263.67 242.12,-263.67 242.12,-260.33 245.46,-257 248.79,-257 248.79,-257 343.71,-257 343.71,-257 347.04,-257 350.38,-260.33 350.38,-263.67 350.38,-263.67 350.38,-270.33 350.38,-270.33 350.38,-273.67 347.04,-277 343.71,-277"/>
<text xml:space="preserve" text-anchor="middle" x="296.25" y="-263.5" font-family="Arial" font-size="10.00" fill="#cfffac">server/core&#45;startup.js</text>
</g>
<!-- server/index.js -->
<g id="node35" class="node">
<title>server/index.js</title>
<path fill="none" stroke="#c6c5fe" d="M113.58,-334C113.58,-334 47.17,-334 47.17,-334 43.83,-334 40.5,-330.67 40.5,-327.33 40.5,-327.33 40.5,-320.67 40.5,-320.67 40.5,-317.33 43.83,-314 47.17,-314 47.17,-314 113.58,-314 113.58,-314 116.92,-314 120.25,-317.33 120.25,-320.67 120.25,-320.67 120.25,-327.33 120.25,-327.33 120.25,-330.67 116.92,-334 113.58,-334"/>
<text xml:space="preserve" text-anchor="middle" x="80.38" y="-320.5" font-family="Arial" font-size="10.00" fill="#c6c5fe">server/index.js</text>
</g>
<!-- server/index.js&#45;&gt;server/accounts&#45;startup.js -->
<g id="edge43" class="edge">
<title>server/index.js&#45;&gt;server/accounts&#45;startup.js</title>
<path fill="none" stroke="#757575" d="M120.6,-320.52C148.45,-318.04 186.7,-314.64 220.3,-311.66"/>
<polygon fill="#757575" stroke="#757575" points="220.34,-315.17 229.99,-310.8 219.72,-308.2 220.34,-315.17"/>
</g>
<!-- server/index.js&#45;&gt;server/core&#45;startup.js -->
<g id="edge44" class="edge">
<title>server/index.js&#45;&gt;server/core&#45;startup.js</title>
<path fill="none" stroke="#757575" d="M109.52,-313.61C132.7,-305.33 166.54,-293.85 196.75,-286 207.62,-283.17 219.27,-280.57 230.61,-278.24"/>
<polygon fill="#757575" stroke="#757575" points="231.19,-281.7 240.32,-276.32 229.83,-274.83 231.19,-281.7"/>
</g>
<!-- server/middleware&#45;anonymous.js -->
<g id="node36" class="node">
<title>server/middleware&#45;anonymous.js</title>
<path fill="none" stroke="#cfffac" d="M369.21,-239C369.21,-239 223.29,-239 223.29,-239 219.96,-239 216.62,-235.67 216.62,-232.33 216.62,-232.33 216.62,-225.67 216.62,-225.67 216.62,-222.33 219.96,-219 223.29,-219 223.29,-219 369.21,-219 369.21,-219 372.54,-219 375.88,-222.33 375.88,-225.67 375.88,-225.67 375.88,-232.33 375.88,-232.33 375.88,-235.67 372.54,-239 369.21,-239"/>
<text xml:space="preserve" text-anchor="middle" x="296.25" y="-225.5" font-family="Arial" font-size="10.00" fill="#cfffac">server/middleware&#45;anonymous.js</text>
</g>
<!-- server/index.js&#45;&gt;server/middleware&#45;anonymous.js -->
<g id="edge45" class="edge">
<title>server/index.js&#45;&gt;server/middleware&#45;anonymous.js</title>
<path fill="none" stroke="#757575" d="M93.59,-313.56C113.7,-296.97 155.65,-264.73 196.75,-248 201.73,-245.97 206.94,-244.16 212.26,-242.53"/>
<polygon fill="#757575" stroke="#757575" points="213.12,-245.93 221.81,-239.87 211.24,-239.19 213.12,-245.93"/>
</g>
<!-- server/middleware&#45;mobile.js -->
<g id="node37" class="node">
<title>server/middleware&#45;mobile.js</title>
<path fill="none" stroke="#cfffac" d="M358.33,-486C358.33,-486 234.17,-486 234.17,-486 230.83,-486 227.5,-482.67 227.5,-479.33 227.5,-479.33 227.5,-472.67 227.5,-472.67 227.5,-469.33 230.83,-466 234.17,-466 234.17,-466 358.33,-466 358.33,-466 361.67,-466 365,-469.33 365,-472.67 365,-472.67 365,-479.33 365,-479.33 365,-482.67 361.67,-486 358.33,-486"/>
<text xml:space="preserve" text-anchor="middle" x="296.25" y="-472.5" font-family="Arial" font-size="10.00" fill="#cfffac">server/middleware&#45;mobile.js</text>
</g>
<!-- server/index.js&#45;&gt;server/middleware&#45;mobile.js -->
<g id="edge46" class="edge">
<title>server/index.js&#45;&gt;server/middleware&#45;mobile.js</title>
<path fill="none" stroke="#757575" d="M87.04,-334.38C101.54,-359.88 142.74,-425.83 196.75,-457 202.84,-460.51 209.45,-463.39 216.28,-465.75"/>
<polygon fill="#757575" stroke="#757575" points="215.1,-469.05 225.69,-468.59 217.13,-462.35 215.1,-469.05"/>
</g>
<!-- server/middleware&#45;traditional.js -->
<g id="node38" class="node">
<title>server/middleware&#45;traditional.js</title>
<path fill="none" stroke="#cfffac" d="M365.08,-391C365.08,-391 227.42,-391 227.42,-391 224.08,-391 220.75,-387.67 220.75,-384.33 220.75,-384.33 220.75,-377.67 220.75,-377.67 220.75,-374.33 224.08,-371 227.42,-371 227.42,-371 365.08,-371 365.08,-371 368.42,-371 371.75,-374.33 371.75,-377.67 371.75,-377.67 371.75,-384.33 371.75,-384.33 371.75,-387.67 368.42,-391 365.08,-391"/>
<text xml:space="preserve" text-anchor="middle" x="296.25" y="-377.5" font-family="Arial" font-size="10.00" fill="#cfffac">server/middleware&#45;traditional.js</text>
</g>
<!-- server/index.js&#45;&gt;server/middleware&#45;traditional.js -->
<g id="edge47" class="edge">
<title>server/index.js&#45;&gt;server/middleware&#45;traditional.js</title>
<path fill="none" stroke="#757575" d="M109.52,-334.39C132.7,-342.67 166.54,-354.15 196.75,-362 205.22,-364.2 214.17,-366.27 223.07,-368.18"/>
<polygon fill="#757575" stroke="#757575" points="222.3,-371.59 232.81,-370.19 223.72,-364.74 222.3,-371.59"/>
</g>
<!-- server/middleware&#45;vpn.js -->
<g id="node39" class="node">
<title>server/middleware&#45;vpn.js</title>
<path fill="none" stroke="#cfffac" d="M351.96,-353C351.96,-353 240.54,-353 240.54,-353 237.21,-353 233.88,-349.67 233.88,-346.33 233.88,-346.33 233.88,-339.67 233.88,-339.67 233.88,-336.33 237.21,-333 240.54,-333 240.54,-333 351.96,-333 351.96,-333 355.29,-333 358.62,-336.33 358.62,-339.67 358.62,-339.67 358.62,-346.33 358.62,-346.33 358.62,-349.67 355.29,-353 351.96,-353"/>
<text xml:space="preserve" text-anchor="middle" x="296.25" y="-339.5" font-family="Arial" font-size="10.00" fill="#cfffac">server/middleware&#45;vpn.js</text>
</g>
<!-- server/index.js&#45;&gt;server/middleware&#45;vpn.js -->
<g id="edge48" class="edge">
<title>server/index.js&#45;&gt;server/middleware&#45;vpn.js</title>
<path fill="none" stroke="#757575" d="M120.6,-327.48C148.99,-330.01 188.19,-333.49 222.26,-336.52"/>
<polygon fill="#757575" stroke="#757575" points="221.82,-339.99 232.09,-337.39 222.44,-333.02 221.82,-339.99"/>
</g>
<!-- server/simple&#45;accounts&#45;startup.js -->
<g id="node40" class="node">
<title>server/simple&#45;accounts&#45;startup.js</title>
<path fill="none" stroke="#c6c5fe" d="M154.08,-524C154.08,-524 6.67,-524 6.67,-524 3.33,-524 0,-520.67 0,-517.33 0,-517.33 0,-510.67 0,-510.67 0,-507.33 3.33,-504 6.67,-504 6.67,-504 154.08,-504 154.08,-504 157.42,-504 160.75,-507.33 160.75,-510.67 160.75,-510.67 160.75,-517.33 160.75,-517.33 160.75,-520.67 157.42,-524 154.08,-524"/>
<text xml:space="preserve" text-anchor="middle" x="80.38" y="-510.5" font-family="Arial" font-size="10.00" fill="#c6c5fe">server/simple&#45;accounts&#45;startup.js</text>
</g>
<!-- server/simple&#45;accounts&#45;startup.js&#45;&gt;../accounts/server/simple&#45;auth&#45;methods.js -->
<g id="edge49" class="edge">
<title>server/simple&#45;accounts&#45;startup.js&#45;&gt;../accounts/server/simple&#45;auth&#45;methods.js</title>
<path fill="none" stroke="#757575" d="M161.01,-514C168.84,-514 176.88,-514 184.95,-514"/>
<polygon fill="#757575" stroke="#757575" points="184.84,-517.5 194.84,-514 184.84,-510.5 184.84,-517.5"/>
</g>
</g>
</svg>
