<?xml version="1.0" encoding="UTF-8" standalone="no"?>
<!DOCTYPE svg PUBLIC "-//W3C//DTD SVG 1.1//EN"
 "http://www.w3.org/Graphics/SVG/1.1/DTD/svg11.dtd">
<!-- Generated by graphviz version 14.1.2 (20260124.0452)
 -->
<!-- Title: G Pages: 1 -->
<svg width="190pt" height="101pt"
 viewBox="0.00 0.00 190.00 101.00" xmlns="http://www.w3.org/2000/svg" xmlns:xlink="http://www.w3.org/1999/xlink">
<g id="graph0" class="graph" transform="scale(1 1) rotate(0) translate(21.6 79.6)">
<title>G</title>
<polygon fill="#111111" stroke="none" points="-21.6,21.6 -21.6,-79.6 168.1,-79.6 168.1,21.6 -21.6,21.6"/>
<!-- carePlans/GoalsTable.js -->
<g id="node1" class="node">
<title>carePlans/GoalsTable.js</title>
<path fill="none" stroke="#cfffac" d="M127.46,-20C127.46,-20 19.04,-20 19.04,-20 15.71,-20 12.37,-16.67 12.37,-13.33 12.37,-13.33 12.37,-6.67 12.37,-6.67 12.37,-3.33 15.71,0 19.04,0 19.04,0 127.46,0 127.46,0 130.79,0 134.12,-3.33 134.12,-6.67 134.12,-6.67 134.12,-13.33 134.12,-13.33 134.12,-16.67 130.79,-20 127.46,-20"/>
<text xml:space="preserve" text-anchor="middle" x="73.25" y="-6.5" font-family="Arial" font-size="10.00" fill="#cfffac">carePlans/GoalsTable.js</text>
</g>
<!-- encounters/nightwatch.conf.js -->
<g id="node2" class="node">
<title>encounters/nightwatch.conf.js</title>
<path fill="none" stroke="#cfffac" d="M139.83,-58C139.83,-58 6.67,-58 6.67,-58 3.33,-58 0,-54.67 0,-51.33 0,-51.33 0,-44.67 0,-44.67 0,-41.33 3.33,-38 6.67,-38 6.67,-38 139.83,-38 139.83,-38 143.17,-38 146.5,-41.33 146.5,-44.67 146.5,-44.67 146.5,-51.33 146.5,-51.33 146.5,-54.67 143.17,-58 139.83,-58"/>
<text xml:space="preserve" text-anchor="middle" x="73.25" y="-44.5" font-family="Arial" font-size="10.00" fill="#cfffac">encounters/nightwatch.conf.js</text>
</g>
</g>
</svg>
